<?xml version="1.0" encoding="utf-8"?>
<!-- Generator: Adobe Illustrator 23.0.1, SVG Export Plug-In . SVG Version: 6.00 Build 0)  -->
<svg version="1.1" id="Layer_1" xmlns="http://www.w3.org/2000/svg" xmlns:xlink="http://www.w3.org/1999/xlink" x="0px" y="0px"
	 viewBox="0 0 400 100" style="enable-background:new 0 0 400 100;" xml:space="preserve">
<g>
	<path d="M398.7,39.6c1.1-2.9,1.6-5.8,1.1-8.9c-0.2-1.3-0.5-2.7-0.6-4c-0.4-6.1-4.2-10.1-9.1-13c-3.5-2.1-7.5-3.6-11.7-4.6
		c-5-1.1-9.9-2.6-15-2.4c-6.1,0.2-12.2,0.7-18.3,1.1c-4.1,0.3-8.1-0.1-12.2,0.1c-3,0.2-5.9-0.7-8.9-0.7c-1.3,0-2.6,0.6-3.3-1.1
		c-0.2-0.4-0.9-0.6-1.4-0.5c-2.7,0.6-5.4,0.2-8,0.3c-6.8,0.2-13.5-1.2-20.3-1.7C285,3.8,279,3.5,272.9,3.1c-6-0.4-12.1-0.3-18.2-0.7
		c-4.9-0.3-9.9,0.1-14.8-0.2c-4.5-0.3-9-0.2-13.4-0.3c-6-0.1-12-0.4-18-1c-5.8-0.5-11.7-0.3-17.6,0c-7,0.4-14-0.3-21-0.6
		C161.9,0,153.8,0,145.7,0c-8,0-16.1,0.4-24.1,0.5c-10.6,0.2-21.3-0.1-31.9,0.5c-2.1,0.1-4.2,0.3-6.3,0.3c-6.1,0-12.3-0.4-18.4-0.1
		c-5.6,0.2-11.2,1-16.7,1.6c-3.9,0.4-7.9,0.8-11.8,1.6c-4.2,0.8-8.3,1.9-12.4,3.1c-5.1,1.4-9.5,3.9-13,7.7c-3.9,4.1-6.9,8.9-9.5,14
		C0.7,30.9,0.1,32.9,0,35c-0.1,5.8,1.6,10.9,6.2,14.8c2.2,1.9,3.7,4.3,6.6,5.4c1.8,0.7,3.3,2.3,5,3.4c7,4.1,13.9,8.4,20.7,12.9
		c7.7,5.1,15.3,10.3,21.7,17c1.3,1.4,2.8,2.5,4.4,3.6c6.7,4.6,14.4,6.5,22.4,6.8c8.2,0.3,16.5,0.1,24.7,0c6-0.1,11.9,0.9,17.9,0.9
		c5.2,0.1,10.4,0.1,15.6,0.2c7.5,0.1,15-0.3,22.4-1.4c8.9-1.3,17.8-2.5,26.9-3.1c11.1-0.7,22.1-2.2,33.3-2.6
		c8.5-0.3,17-0.5,25.5-0.6c4.5-0.1,9.1,0.1,13.6-0.2c4.2-0.2,8.4-0.9,12.6-1.4c6.3-0.8,11.9-2.7,16.5-7.5c4.5-4.8,8.4-10.1,13-14.8
		c5.9-6.1,12.6-11.1,19.8-15.3c5.8-3.4,12.3-5.4,19.4-5.2c4.5,0.2,8.6,1.1,12.5,3.5c4.9,3,9.9,5.9,16,5.6c3.8,0.6,6.9-1.5,10.2-2.8
		c3.3-1.3,5.5-3.5,7.5-6.1c1.8-2.4,5.5-4.1,4.2-8.1C398.5,39.9,398.6,39.7,398.7,39.6z M329.6,14.7c5.3,3,11.1,4.9,16.3,8
		c6.2,3.7,13,6,19.1,9.7c4.6,2.8,10,4.4,15.1,6.2c0.9,0.3,1.8,0.5,2.6,1c2.2,1.2,4.4,2.4,6.8,3c0.6,0.1,1.1,0.4,1.6,1.1
		c-2.8,1.2-5.7,1.1-8.4,0.9c-5.1-0.4-10-1.7-14.6-4c-2.6-1.3-5-2.9-7.1-4.9c-3.1-3-6.5-5.7-10.3-7.8c-3.1-1.7-6.5-3.1-10.3-2.2
		c-1.3,0.3-2.8,0.3-4.1,0.4c-1,0.1-1.6-0.5-2.2-1.1c-1.9-2.3-4.2-4.3-6.1-6.6c-1.6-2-3.3-3.9-5-6.2
		C325.8,12.5,327.7,13.7,329.6,14.7z M13.6,16.7c2-2.5,4.9-3.8,7.8-5.1c4.7-2.3,9.9-3.1,15-4.1c12.2-2.3,24.5-3.9,36.9-3.6
		c12.3,0.3,24.5-0.5,36.8-0.7c4.9-0.1,9.8,0,14.6-0.1c6.7-0.1,13.3-0.3,20-0.3c7.4-0.1,14.8-0.1,22.2,0.1c5.3,0.1,10.7,0.6,16,0.8
		c5.5,0.2,10.9-0.2,16.3-0.3c5-0.1,10,0.1,15,0.5c10.4,0.8,20.8,0.8,31.2,1.2c8.4,0.3,16.7,0.5,25.1,0.9c9,0.5,17.9,0.9,26.8,1.9
		c6.1,0.7,12.2,1.1,18.3,1.2c0.9,0,1.9-0.2,2.6,1.1c-2-0.1-3.7-0.3-5.5-0.3c-3,0-6,0.4-8.9,1.2c-2.9,0.8-6,0.8-9,1.2
		c-3.9,0.5-7.9,1-11.8,1.4c-3.1,0.3-6.2,0-9.3-0.3c-5.1-0.5-10.2-1.1-15.3-1.7c-8.5-1-17.1-1.1-25.6-2c-7.5-0.8-15.1-1.1-22.7-1.4
		c-4.6-0.2-9.2-0.2-13.8-0.4c-3.1-0.1-6.2,0.6-9.3,0.4c-5.2-0.3-10.4-0.6-15.6-1.1c-4.7-0.5-9.5-0.3-14.2-0.4
		C151.7,6.5,146,6,140.3,6.1C129.9,6.2,119.5,6,109.2,6c-7,0-13.8,0.9-20.7,1.3c-3.9,0.2-7.9,0.3-11.9,0.5c-6.9,0.2-13.7,1-20.4,2.5
		c-9.5,2-19,4-28.2,6.8c-5.3,1.6-10.5,3.5-15.3,6.2c-1.8,1-3.8,1.7-6,2.6C8.6,22.2,11.3,19.7,13.6,16.7z M239.9,58.4
		c0.3,0.8,0.5,1.6,0.9,2.3c1.8,3.5,5.2,4.1,8.7,4.4c3,0.2,4.5-2.1,6.1-4c0.3-0.3,0.3-0.8,0.3-1.3c0.2-2.4,0.2-2.5,2.6-1.9
		c1,0.2,2,0.4,2.9,0.3c1.9-0.2,2.5,0.7,2.3,2.4c0,0.4,0,0.8-0.1,1.2c0.6,2.9-0.9,5.4-2.6,7.4c-0.9,1.2-2.9,1.7-4.5,2.2
		c-3.7,1.2-7.4,2.4-11.3,2.6c-6.3,0.3-12.3-0.5-18.1-3.1c-0.4-0.2-0.8-0.4-1-0.7c-2.3-3.2-4.7-6.4-4.8-10.6c-0.1-3-1.3-5.8-1.5-8.8
		c-0.2-3.8-0.6-7.7,0.9-11c1.2-2.5,2-5.8,5.5-7c3-1,6-1.5,9.2-1.4c4.2,0.2,8.3,0.5,12.2,2c5.4,2.1,10.5,4.6,12,10.9
		c0.3,1.4-0.1,1.9-1.5,2c-1.1,0-2.1,0.1-3.1,0.3c-1,0.2-1.4-0.1-1.7-1c-0.7-1.9-1.7-3.5-3.2-5c-2.6-2.7-8.9-1-10.3,2.4
		C237.8,48.2,237.7,53.3,239.9,58.4z M243.6,26.6c-5.5,0.2-11.1,0-16.6-0.3c-5.7-0.3-11.4-0.3-17-0.8c-7.4-0.7-14.9-0.7-22.3-1.2
		c-0.5,0-1.2,0.1-1.4-0.5c-0.2-0.5,0.4-0.8,0.6-1.1c2-2.9,4.6-5.1,7.7-6.7c3-1.5,5.7-3.7,9-4.8c2.9-0.9,5.7-0.4,8.6-0.3
		c7.4,0.3,14.8,0.7,22.2,1.3c6.7,0.6,13.4,1.1,20.1,1.5c0.4,0,0.7,0.2,1.8,0.4c-2.8,1.4-5,2.7-6.5,4.9c-1.4,2.1-2.9,4.1-4.3,6.3
		C245.1,26.1,244.6,26.6,243.6,26.6z M185.9,19c-0.8,1.1-1.8,2.1-2.6,3.2c-1.3,1.9-3.2,2.2-5.3,2.3c-4.8,0.1-9.6,0.4-14.4,0.3
		c-7.4-0.2-14.7,0.6-22.1,0.9c-2.7,0.1-5.3,0.7-8,0.9c-3.5,0.3-7,0.3-10.5,0.5c-0.4,0-0.9,0-1-0.4c-0.1-0.4,0.3-0.7,0.6-1
		c2.3-2,4.8-3.8,7.4-5.5c3.6-2.5,7.6-4.4,11.5-6.3c3.9-2,8-3.6,12.7-4c9.3-0.8,18.4,0.4,27.5,1c5.1,0.3,10.2,0.3,15.8-0.5
		C193.5,13.9,188.8,15.2,185.9,19z M122,30.1c-0.8,0.8-1.8,0.5-2.8,0.6c-1.6,0.2-2.5,0.8-2.6,2.7c-0.3,4.2,0.4,8.2,1.2,12.2
		c0.4,2.1,0,2.5-2,2.5c-1,0-1.5-0.4-1.5-1.4c0.2-3.7-0.9-7.4,0.1-11.1c0.6-2.1-0.3-3-2.5-3.3c-1.4-0.2-2.8-0.5-4.1-1.6
		c3.4-0.2,6.7-0.5,10.1-0.7C119.2,30,120.6,29.7,122,30.1z M109.3,34.7c1.1,0.5,1.5,0.9,1.6,2c0.1,4.2,0.1,8.5,0.6,12.7
		c0.2,1.4,1.1,1.6,2.1,1.5c2-0.1,3.9-0.1,5.9,0.2c1.4,0.2,2.3-0.4,2-2.2c-0.6-4.3-1.7-8.5-1.7-12.8c0-2.7,0.5-3.4,3.2-3
		c3.9,0.6,7.9,0.5,11.8,0.4c1.1,0,0.9,0.7,1.1,1.3c0.8,3.2,0.9,6.5,1,9.8c0.1,5,0.4,9.9,0.8,14.9c0.4,4.9,0.8,9.9,0.8,14.8
		c0,1.2,1.2,2.5,0,3.4c-1,0.8-2.4,0.1-3.7,0.3c-0.1,0-0.3,0-0.4,0c-2.8,0-5.7-0.5-8.5-0.2c-1.2,0.1-1.9-0.5-1.8-1.7
		c0.4-3.6-1.3-7.1-0.7-10.8c0.2-1.2-0.7-1.5-1.8-1.6c-2.2-0.3-4.5,0.1-6.7-0.6c-1.4-0.5-2.7,1-2.3,2.5c1,3.4,0.1,7,0.9,10.4
		c0.2,0.7-0.1,1.1-1.1,1.1c-4.2,0-8.4,0-12.6,0.1c-1,0-1.3-0.3-1.5-1.3c-0.6-5.3-1.7-10.5-1.8-15.9c-0.1-5.7-0.5-11.4-0.8-17.1
		c-0.1-2.1-0.2-4.2-0.5-6.4c-0.1-1.2,0.1-1.8,1.4-2C100.9,33.9,105.1,32.9,109.3,34.7z M95.1,77.1c-0.4,0.8-0.5,1.2,0.3,2
		c0.8,0.7,1.5,1.3,2.6,1c4.4-1,8.8-0.6,13.2-0.4c1.5,0.1,3,0.2,4.5,0.3c1.4,0.1,2-0.6,1.7-1.9c-0.7-3.3-1.3-6.6-1.2-9.9
		c0-0.8-0.6-1.9,0.9-2c2.2-0.2,3,0.3,3.1,1.8c0.3,3.3,0.6,6.6,0.9,9.8c0.3,2.5,0.9,3.1,3.3,2.8c5.3-0.7,10.5,0.1,15.8-0.1
		c1.6-0.1,2.2-0.7,2-2.1c-0.8-6.3-1-12.6-1.5-18.9c-0.6-6.6-0.7-13.1-1-19.7c-0.1-2.5-1.2-4.9-0.7-7.5c0.1-0.8-0.7-1.2-1.5-1.2
		c-3.4-0.1-6.8-0.1-10.2-0.3c-1.8-0.1-3.5-0.4-5.2-0.7c2.1-0.7,4.3-0.3,6.5-0.4c4.1-0.1,8.1-0.6,12.2-1.1c9.7-1,19.5-1.4,29.3-1
		c-1.7,0.6-3.4,0.8-5.1,1.5c-3.6,1.5-5.6,4.4-7,7.8c0,0.1-0.1,0.3-0.1,0.4c1.8,2.9-0.6,6.1,0.6,9.2c1.7,4.7,4.6,8.1,9.1,10.1
		c3.8,1.6,7.4,3.3,10.5,6.1c1.5,1.4,3.1,2.8,4.3,4.5c0.7,0.9,0.9,1.9,0.5,2.9c-0.5,1.1-1.5,1-2.5,1.1c-3.9,0.3-10.6-3.1-12.1-8.1
		c-0.6-2-1.4-3.2-3.9-3c-2.3,0.1-4.6-0.1-6.9,0c-2.1,0-2.7,0.9-2.2,2.9c1,4.3,2.9,8,6.1,11.2c1.9,1.8,4.1,2.8,6.5,3.4
		c5.2,1.2,10.5,0.9,15.8,0.9c1.4,0,2.7,0,4.1,0.1c-7.6,1-15,2.8-22.6,3c-5.6,0.2-11.2,0.6-16.8,1.2c-3.8,0.4-7.7,0.2-11.5,0.4
		c-5.1,0.3-10.3,0.4-15.4,0.1c-6.7-0.4-13.4-0.9-20.1-1.3c-3.5-0.2-7-0.3-10.4-1.1c-6.4-1.6-12-4.7-17.2-8.5
		c-2.2-1.5-3.2-3.9-4.3-6.2c-1.1-2.3-2-4.7-3-7.1c-2.3-5.8,0-11.5,3.9-14.9c4.6-4,9.8-6.7,15.5-8.6c1.5-0.5,3.1-0.7,4.6-1
		c1.1-0.2,1.8,0.3,1.8,1.4c0.1,1.9,0.3,3.9,0.4,5.8c0.3,5.6,0.8,11.2,0.9,16.8c0.1,4.3,0.4,8.6,1.1,12.9c0.2,1.2,0.6,2.4,0.7,3.6
		C95.3,75.7,95.3,76.5,95.1,77.1z M173.6,75.6c-5.8-0.2-10.6-2.4-13.4-7.8c-0.6-1.3-1-2.6-1.4-4c-0.2-0.8,0.5-1.1,1.2-1.2
		c1.2-0.1,2.5-0.1,3.7-0.1c1.2,0,1.3,1,1.6,1.7c2.1,5.8,6.6,8.5,12.4,9.4c1.5,0.2,3,0.3,4.5-0.1c3.8-1,5.1-5,2.7-8.2
		c-4.2-5.3-9.6-8.8-15.9-11.5c-5.7-2.4-9.5-8.4-6.8-15.1c0.2-0.4,0.3-0.8,0.2-1.3c-0.1-0.6-1.5-0.8-0.7-1.7c1-1.2,1.5-2.8,3-3.5
		c3.6-1.7,7.3-2.8,11.4-2c4.2,0.8,8.4,1.4,12.5,2.9c2,0.7,4.2,1.4,5.9,2.6c2.5,1.7,5.7,2.7,6.9,6c0.4,1.2,0.4,1.8-1.2,2.4
		c-3.7,1.3-6.4-0.2-9.2-2.1c-3.9-2.7-8.2-4.7-13-5.2c-4.4-0.5-8.1,2.9-8.3,7.3c-0.2,4.2,2.3,6.5,5.3,8.6c1.9,1.3,3.8,2.5,5.8,3.6
		c3.7,2.1,8.1,2.8,12,4.5c3.4,1.4,6.7,2.9,8.5,6.5c0.8,1.6,0.6,3.3,1,4.9c0.1,0.6-0.6,0.9-1.1,1.2c-3,1.4-6,2.2-9.3,2.1
		C185.7,75.6,179.7,75.8,173.6,75.6z M206.3,72.8c1-1.3,1.5-2.2-0.3-3.4c-1.5-1-1.8-2.9-2.6-4.5c-0.8-1.6-1.8-2.8-3.5-3.7
		c-4.8-2.8-10.3-4.1-15.4-6.1c-4.1-1.6-7.8-4.3-10.9-7.5c-0.7-0.7-0.7-1.6-0.8-2.5c-0.3-3.9,2-6.1,6-5.3c5,1,9.2,3.3,12.6,7
		c0.7,0.8,1.6,1.1,2.7,1c3-0.3,6-0.5,9.1-0.8c1.5-0.2,2.3-0.8,2.1-2.6c-0.3-4.1-2.7-7.1-5.6-9.7c-1.1-1-3.2-0.7-4.7-1.5
		c-5.4-2.8-11.2-4.1-17.1-5c-0.6-0.1-1.2-0.4-1.9-0.6c17-0.9,33.9,1.1,51.4,1.6c-2.5,1.4-4.8,2.2-6.6,4c-2.4,2.3-2.6,5.3-3.3,8.1
		c-1.4,6-0.5,11.9,0.8,17.8c0.6,3,1.3,6,2.3,8.9c1,3,3.3,4.7,5.8,5.7c8,3.2,16.4,4.1,24.9,2.2c3.6-0.8,7.2-2,10.6-3.5
		c1.8-0.8,3.5-2.1,3.8-4.7c0.2-2,1.5-4,1.4-6.1c0-0.4,0.1-0.8,0.1-1.2c-0.7-5.1-0.5-4.6-4.8-4.8c-2.5-0.1-4.7-0.9-7.1-1.5
		c-1.6-0.4-2.7,0.4-2.7,2c0,0.8,0.1,1.6,0.3,2.3c0.5,2.3-2.5,4.3-4.8,3.8c-4.6-1.1-5.4-4.9-6.3-8.3c-0.7-3-0.4-6.2,0.8-9.2
		c1.1-2.9,4-3.6,6.2-1.3c1.1,1.1,1.7,2.5,1.9,4c0.2,1.2,0.9,1.9,2.2,2c3.2,0.2,6.4-0.3,9.6-0.9c1.4-0.3,1.8-1,1.5-2.2
		c-1.2-4.5-2.2-9.1-7-11.6c-2.8-1.5-5.2-3.8-8.6-4.2c-0.3,0-0.5-0.3-1-0.6c6.9-0.7,13.4,0.3,19.9,1.7c5.2,1.1,9.9,3.3,14.7,5
		c0.9,0.3,1.6,0.8,2,1.7c0.2,0.6,0.9,1,1.5,1.2c3,1.4,4.8,3.7,5.4,6.9c1.4,8.1-1,14.8-6.8,20.7c-5.4,5.5-12.1,8.6-19.6,10.2
		c-0.7,0.2-1.4,0.4-2,0.8c-0.8,0.5-1.7,0.9-2.4,0.4c-1.7-1-3.6-0.9-5.4-0.8c-5.8,0.2-11.6-0.1-17.4-0.2c-5.4,0-10.8-0.4-16.2,0.2
		c-0.1,0-0.3,0.1-0.4,0c-2.5-2.1-5,0.1-7.6,0c-2.7-0.1-5.4,0-8.1,0c-2.5,0-4.9,0-7.6,0C200.9,76.8,204.1,75.5,206.3,72.8z
		 M286.5,32.6c-0.6,1.5-1.1,2.3-3.2,1.4c-9.5-4-19.4-6.9-29.9-7.3c-1.4-0.1-2.9,0-4.5,0c2.4-5,5.5-9.1,11.1-10.9
		c3.1-1,6.1-0.7,9.3-0.4c7.7,0.6,15.3,1.4,23-0.2c2.3-0.5,4.7-0.4,7-0.5c-2.7,1.8-4.3,4.6-6.7,6.6c-3,2.6-4.5,6-5.5,9.6
		C286.9,31.5,286.7,32.1,286.5,32.6z M11.1,48.6c-0.5,0.7-0.9,1.3-1.8,0.5c-4.9-4.3-7.7-9.3-6.2-15.9c0.3-1.4,1.2-1.7,2.1-2.5
		c3.4-2.8,7.6-3.8,11.4-5.8c7.1-3.6,14.7-6.2,22.5-7.7c3.9-0.8,7.6-2.3,11.5-2.7c0.2,0,0.5,0,0.7-0.1c-6.2,2.3-11.3,6.2-16.4,9.9
		c-6.3,4.6-12.4,9.4-17.3,15.6C15.4,42.7,13.3,45.7,11.1,48.6z M29.3,62.3c-4.9-3-9.9-6-14.8-9c-1.4-0.8-1.4-2-0.7-3.2
		c0.6-1.1,1.3-2.3,2.1-3.3c5.7-7.4,12.3-13.8,19.8-19.4c4.8-3.5,9.5-7,14.9-9.5c3.6-1.7,7.5-2.8,11.2-4.2c0.4-0.1,0.9-0.2,1.1-0.4
		c1.5-2.8,4.5-2.2,6.8-2.4c6.2-0.5,12.4-0.5,18.6-0.8c3.3-0.2,6.5-0.6,9.8-0.9c0,0.1,0,0.1,0.1,0.2c-3.9,1.7-7.7,3.5-11.6,5.2
		c-5.4,2.3-10.8,4.8-15.7,8c-3,1.9-6.3,3.1-9,5.5C54.1,34.7,47.1,41.7,41,49.6c-3.2,4.2-7.1,7.8-9.9,12.3
		C30.7,62.6,30.1,62.8,29.3,62.3z M64.6,82.2c-0.7,0.9-1.1,2.1-1.6,3.1c-0.5,1-1,1-1.8,0.2C55,79.2,47.9,73.9,40.2,69.3
		c-2.1-1.3-4.1-2.8-6.2-4.1c-0.8-0.5-0.5-1-0.2-1.6c1.6-2.7,3.4-5.3,5.5-7.5c4.6-4.8,8.4-10.3,13-15.1c6.1-6.4,12.5-12.3,20.5-16.6
		c5.8-3.1,11.6-6.1,17.7-8.6c4.3-1.7,8.5-3.9,12.9-5.3c4.8-1.5,9.6-1.9,14.6-1.8c5,0.1,10,0.2,15,0.1c3.1-0.1,6.2,0.3,9.3-0.1
		c0.6-0.1,1.3,0.1,2.3,0.9c-4.3,0.7-7.2,3.3-10.7,4.8c-3.5,1.6-6.8,3.9-9.9,6.3c-2.3,1.9-4.9,3.5-6.6,6c-0.5,0.7-1.4,0.8-2.2,0.8
		c-4.9,0.2-9.8,0.6-14.5,1.5c-4.3,0.8-8.6,1.7-12.8,3c-2.4,0.8-4.9,1.1-7.2,2.1c-5.7,2.4-11,5.5-14.9,10.4
		c-2.7,3.4-3.5,7.3-2.5,11.5c1.6,6.6,3.8,13,8.7,18.1c1.2,1.2-0.1,1.4-0.7,1.8C68.6,77.6,66.4,79.7,64.6,82.2z M126.7,94.7
		c-0.5,2-1.8,2.3-3.8,1.8c-11.4-0.8-23-0.2-34.6-0.4c-7.9-0.1-15.9-1.8-22.6-6.7c-0.6-0.4-0.8-0.7-0.4-1.6c1.7-4.6,5-7.8,8.9-10.5
		c0.9-0.6,1.4-0.6,2.2-0.1c4.6,2.6,9.3,4.8,14.4,6.2c4,1.1,8.1,0.7,12.1,1.1c7.8,0.8,15.6,0.8,23.5,1.2c2.3,0.1,4.6,0,6.9,0
		c0.6,0,1.5-0.4,1.8,0.4c0.3,0.7-0.6,0.9-1,1.2c-2.4,1.7-4.5,3.8-6.5,5.9C127.3,93.7,126.8,94.2,126.7,94.7z M206.2,91.8
		c-6.6,0.6-13.3,1.2-19.9,1.7c-6.7,0.5-13.3,1.6-20,2.5c-7.2,1-14.4,1.5-20.9,1.1c-5.4,0-10,0-14.6,0c-0.5,0-1.2,0.2-1.4-0.4
		c-0.3-0.6,0.2-1,0.6-1.3c1.3-1.4,2.6-2.8,4-4c1-0.9,2.3-1.6,3.2-2.6c2.3-2.9,5.3-3.5,8.9-3.5c9.4-0.1,18.9-0.7,28.2-2
		c7.5-1.1,14.9-1.9,22.4-2.5c4.6-0.4,9.3,0,14-0.4c0.6-0.1,1.5-0.1,1.8,0.5c0.2,0.6-0.5,1-0.9,1.4c-2.5,2.5-3.8,5.5-4.2,8.9
		C207.2,92.1,206.5,91.7,206.2,91.8z M265.5,81.7c-0.1,0.2-0.2,0.3-0.3,0.4c-1.2,2.4-2.3,4.6-3.3,6.8c-0.3,0.6-0.9,0.5-1.4,0.5
		c-10,0.2-20,0.2-30.1,0.6c-5.5,0.2-10.9,0.4-16.4,1.2c-4.2,0.6-3.9,0.6-2.8-3.3c0.9-3,3.6-4.9,5.8-7c0.7-0.6,1.8-0.6,2.6-0.6
		c8.4,0,16.7-0.1,25.1,0.2c3.1,0.1,6.3-0.3,9.3,0c0.1,0,0.1,0,0.1,0c1.8,0.3,3.6,0.1,5.4,0c0,0,0,0,0.1,0c0.1-0.1,0.1-0.1,0.2-0.1
		c0.8,0,1.7,0,2.5-0.1c0.2,0,0.5-0.1,0.7-0.1c0,0,0.1,0,0.1,0c0.2,0,0.4-0.1,0.6-0.1c0.1-0.1,0.3-0.2,0.5-0.2c0,0,0.1,0,0.1,0
		c0,0,0.1,0,0.1,0c0.1,0,0.1,0,0.2,0.1c0,0,0.1,0,0.1,0c0,0,0.1-0.1,0.1-0.1c0,0,0,0,0.1,0c0.1,0,0.1-0.1,0.2-0.1c0,0,0.1,0,0.1,0
		c0.1-0.2,0.2-0.4,0.4-0.4c0.1,0,0.1,0,0.1,0c0.1-0.1,0.1-0.1,0.2-0.1c0.7,0,0.7,1.1,0,1.1c0,0,0,0-0.1,0c-0.1,0.1-0.2,0.1-0.3,0.1
		c0,0.1-0.1,0.2-0.2,0.3c0,0.1-0.1,0.2-0.1,0.2C265.6,81.4,265.6,81.5,265.5,81.7z M291.3,80.1c-1.9,4.8-5.5,7.1-10.7,7.5
		c-4.6,0.4-9.2,1.1-14.1,1.7c-0.7,0-1.1-0.5-0.7-1.5c1.4-3.1,3.2-6.1,5-9c0.1-0.2,0.4-0.4,0.6-0.4c4-1.1,7.3-3.7,10.5-6
		c9.7-6.9,13.2-17.8,10.7-28.8c-0.5-2.1-2.2-3.7-3.7-5.2c-0.7-0.6-1.2-1.3-0.7-2.2c1.8-3.1,2.1-6.8,4.1-9.8c2.2-3.3,4.8-6.1,8-8.4
		c2.1-1.5,3.9-3.4,6.7-4c3.6-0.8,7.1-1.4,10.8-1.4c0.8,0,1.3,0.3,1.9,0.9c3.9,3.7,7.3,7.8,10.9,11.8c0.8,0.8,0.8,1.1-0.4,1.7
		c-3.4,1.6-6.1,4.1-8.4,7c-3.6,4.5-7.7,8.4-11.1,13.1c-3.5,4.9-6.8,9.9-10.5,14.7c-3.6,4.8-4.5,10.7-7.7,15.6
		C292,78.3,291.6,79.2,291.3,80.1z M350.2,45.1c-1.4-0.1-2.7-0.3-4.1-0.2c-8.2,0.8-15.8,3.1-22.6,7.9c-3.7,2.7-7.7,5-11,8.1
		c-2.5,2.4-4.9,5-7.5,7.4c-2.7,2.6-5.1,5.4-7.2,8.4c-0.5,0.7-1.1,1.4-2.2,1.9c1-2.1,2.1-3.9,2.7-5.8c2.9-8.9,9-15.9,14.3-23.4
		c3.1-4.5,7.1-8.3,10.5-12.5c2.3-2.8,5.1-5.2,8-7.4c1.3-1,2.4-1.1,3.6,0.3c4.7,5.4,9.9,10.4,15.6,14.7
		C350.3,44.7,350.3,44.9,350.2,45.1z M368.4,52.2c-3.4-1.8-6.8-3.7-10.2-5.5c-4.2-2.2-7.3-5.7-10.9-8.6c-2.7-2.2-5.2-4.6-7.5-7.1
		c-0.4-0.4-1-0.9-0.9-1.4c0.1-0.7,1-0.3,1.5-0.5c3.7-1.4,6.6,0.4,9.6,2c5.3,2.8,9,7.5,14,10.7c2.8,1.8,5.9,3,9,3.9
		c2.1,0.6,4.2,1.1,6.3,1.5c4.2,0.8,8.4,0.2,12.7,0C386.3,53.4,376.2,56.2,368.4,52.2z M395.7,39.8c-0.3,0.6-0.9,0.9-1.6,0.8
		c-2.5-0.5-5.1-1.1-7.3-2.3c-5-2.8-10.5-4.1-15.7-6.3c-1.6-0.7-3.2-1.2-4.6-2.1c-4.2-2.7-8.8-4.8-13.3-6.8c-2.4-1.1-4.6-2.6-6.9-3.8
		c-2.8-1.4-5.6-2.6-8.4-3.8c-2.9-1.3-5.5-3.3-8.9-4.4c5.9-0.7,11.4,0.6,16.9-0.5c0.8-0.2,1.2,0.2,1.5,0.9c2.5,6,7.4,9.7,13.4,11.7
		c5.6,1.9,11.3,3.6,17.1,4.8c6.4,1.3,11,5,15.8,8.7c0.6,0.5,1.3,0.9,1.8,1.5C395.8,38.6,395.9,39.2,395.7,39.8z M397,35.1
		c-0.5,0.3-0.9-0.3-1.4-0.6c-3.1-2.1-5.8-4.6-9.1-6.5c-1.5-0.8-3-1.7-4.7-2.1c-6.2-1.3-12.2-3.3-18.3-4.8c-5.3-1.3-9.5-4.4-12.7-8.7
		c-0.8-1.1-0.8-1.7,0.8-1.7c1.4-0.1,2.7-0.4,4.1-0.6c6-0.9,12-0.5,17.9,0.6c5.8,1.1,11.5,2.6,16.3,6c3.3,2.3,6.1,5.2,6.6,9.4
		c0.3,2.4,0.5,4.9,0.7,7.3C397.4,34,397.6,34.8,397,35.1z"/>
</g>
</svg>
