<svg xmlns="http://www.w3.org/2000/svg" viewBox="0 0 400 100"><defs><style>.a{fill:#fefefe;}.b{fill:#1f1f1f;}.c{fill:#fbfbfb;}.d{fill:#fac489;}.e{fill:#f29478;}.f{fill:#ef6c50;}</style></defs><path class="a" d="M19.5,95.2H-179.8c-.6,0-.7-.1-.7-.6V-4.1c0-.6.1-.7.7-.7H218.8c.6,0,.7.1.7.7V94.6c0,.5-.1.6-.7.6ZM-138.4,62.9c-.1.1-.1.1,0,.2h.1c0-.1,0-.1-.1-.1s.3-.3.6-.2l2.3,1.7c1.1.7,1.9,1.7,3.1,2.2a1.8,1.8,0,0,1,1.1,1.3c.1.5.4.6.8.8a9.4,9.4,0,0,1,3.5,2c1.9,2,4.3,3.4,6.2,5.3a8,8,0,0,1,2.2,2.3c.3.8,1.2,1.2,1.4,2.1h.3a16.4,16.4,0,0,1,2.9,1.6c2.1,1.6,4.5,2.5,6.8,3.7a10.8,10.8,0,0,0,2.7,1c.9.2,1.6.9,2.5,1.1a15.5,15.5,0,0,0,3.7.4c2.9-.2,5.7.4,8.6.3a6.7,6.7,0,0,1,2-.1c2.1.4,4.3.1,6.4.5a7.8,7.8,0,0,0,4-.3c.2-.2.6-.1.8-.1s2.1.3,3.2.3c5.3-.1,10.6-.2,15.8.1h1a15.1,15.1,0,0,0,5.2.3h1a6.5,6.5,0,0,0,2,.4l3,.3c2.1.2,4.2.5,6.4.5h9.1a36.9,36.9,0,0,0,7.4-.5,33.9,33.9,0,0,1,4.5-.2c2.2-.1,4.3-.5,6.5-.7l6.4-.3c1.5-.1,2.9-.7,4.4-.3s1.6-.3,2.4-.3c3.2-.1,6.4-.6,9.6-.6l2.2-.3a10.9,10.9,0,0,1,3.1.1,10.8,10.8,0,0,0,4-.3c.7-.1,1.3-.4,2-.1a2.2,2.2,0,0,0,1.4.1,24.3,24.3,0,0,1,6-.5h.6c1-.1,2-.6,3-.7s4-.1,6,0c5.3.4,10.6.1,15.9.4,3.2.2,6.3.2,9.4.1a50.6,50.6,0,0,0,5.5-.2,13.3,13.3,0,0,1,2.8-.3,53,53,0,0,0,6.9,0,19.7,19.7,0,0,1,4.2,0,29.4,29.4,0,0,0,4.2,0,5.3,5.3,0,0,1,1.3-.1,12.9,12.9,0,0,0,4.8-.1c2-.3,3.9-1.1,6-.8l.5-.2c-.1-.6.5-.4.7-.5l2-.7c.2,0,.4,0,.4-.2s.8-.8,1.2-1.1a33,33,0,0,0,3.2-1.8c1.1-.7,1.7-2,2.7-2.8l2.5-1.7a13.7,13.7,0,0,0,2.5-2.3,3.7,3.7,0,0,1,1.3-1.2,8.6,8.6,0,0,0,2.4-1.7,12.6,12.6,0,0,1,3.2-2.5l1-.8a15.7,15.7,0,0,1,2.7-2.5,14.5,14.5,0,0,0,2.2-2.1,4.7,4.7,0,0,1,2.1-1.6,4,4,0,0,0,1.5-1,14.3,14.3,0,0,1,3-2c1.4-.8,2.6-1.9,3.9-2.8a13.1,13.1,0,0,0,2.4-1.7,3,3,0,0,1,1.4-1.1l2.7-1.1a8,8,0,0,1,1.6-.8,74,74,0,0,0,8.1-2.1,14.1,14.1,0,0,1,4.5-.7,14.8,14.8,0,0,0,2.1-.1l3.4-.2c1.6-.1,3.1.5,4.6.3a1.4,1.4,0,0,1,.9.1,8.6,8.6,0,0,1,1.6,1c.8.6,1.7.9,2.4,1.5s1.4,1.6,2.6,1.6h.2l2,.8c1.4.6,2.9.9,3.9,2s.2.2.2.1.5-.1.8,0l1.9.9c1.9.8,3.8.6,5.8.9s1.7-.4,2.5-.4a9.7,9.7,0,0,0,3.8-.5c1.1-.5,2.4-.3,3.4-1a8.5,8.5,0,0,1,2.6-1.1l.8-.5a15.7,15.7,0,0,1,2.6-1.9,9.4,9.4,0,0,0,1.2-.9l2.6-2.4a1.5,1.5,0,0,0,.5-.7c.4-2.1.8-4.1,1.3-6.1a4.6,4.6,0,0,1,.9-2.3,1.8,1.8,0,0,0,.6-1.3,5.1,5.1,0,0,1,.3-2.2c.7-1.4.4-2.9.8-4.3a1.1,1.1,0,0,0-.1-.5c-.4-1.7-1-3.4-1.3-5.1a3.4,3.4,0,0,0-.1-1,8.7,8.7,0,0,0-2.2-3.1,40,40,0,0,0-4.9-3.5c-1.6-1.1-3.4-2-5.1-3a11.3,11.3,0,0,0-5-1.9,10.8,10.8,0,0,1-3.2-.9,11.3,11.3,0,0,0-2.8-.9c-1.8-.3-3.6-.3-5.4-.5s-3,.2-4.6,0c-5.2-.6-10.5-.6-15.7-.7a38.5,38.5,0,0,1-4.8.1,84.9,84.9,0,0,0-8.8-.5,28.3,28.3,0,0,1-5-.2,8.9,8.9,0,0,0-2.8-.3,5.7,5.7,0,0,1-2.6-.1,10.5,10.5,0,0,0-2.5-.1,10.6,10.6,0,0,1-2.5.2c-2.1-.1-4.2-.5-6.3-.8l-6.8-.9c-3-.4-6-.6-9-.8s-7.2-.6-10.8-.7a38.9,38.9,0,0,1-4.9-.4c-3-.5-5.9-1-8.8-1.2s-5,0-7.4-.3a34.8,34.8,0,0,0-5.5-.4,31.5,31.5,0,0,1-8.1-.4c-5.7-.8-11.4-1-17.1-1.5-2.1-.1-4.1,0-6.2.1a19.7,19.7,0,0,1-4.2,0,82.1,82.1,0,0,0-9.9-.5,18,18,0,0,1-4-.3L24.1.9C22.2,1,20.4.8,18.5.8s-2-.7-3-.5A22.7,22.7,0,0,1,11,.6,51.7,51.7,0,0,1,1.4-.1a15.7,15.7,0,0,0-3-.5l-9,.3A117.5,117.5,0,0,1-22.5-.6L-28.6-1a83.6,83.6,0,0,0-11.2-.1A70,70,0,0,1-49-.7h-6.5a81.1,81.1,0,0,1-8.6-.5,22.5,22.5,0,0,0-5.8,0,22.4,22.4,0,0,1-7.3-.2h-1.5c-1.4-.1-2.7.2-4.1.2-2.9,0-5.9,0-8.9-.2a16.1,16.1,0,0,1-3.1,0,4.5,4.5,0,0,0-2.3,0,6.5,6.5,0,0,1-2.4.2,18.6,18.6,0,0,0-3.3-.4,56.2,56.2,0,0,1-5.8.2l-7,.3h-5.1c-1.4.2-2.9-.1-4.3.1L-134.3.2l-2.7.2a8.8,8.8,0,0,0-3.6.3l-1.2.5-3.3.7c-3.5,1-6.9,2.1-10.3,3.3-.2.1-.5.1-.7.4a4.4,4.4,0,0,1-2.5,1.5,3.8,3.8,0,0,0-1.8,1.2,12.1,12.1,0,0,1-2.4,2.1,2.8,2.8,0,0,1-1.4,1,4.5,4.5,0,0,0-2.4,2.3,13.7,13.7,0,0,1-2.6,3.7,1.9,1.9,0,0,0-.5,1,14.7,14.7,0,0,1-1.4,2.8c-.8,1-1.2,2.2-1.9,3.2a7.8,7.8,0,0,0-.9,3.4,33.9,33.9,0,0,0,.2,4.5,11.4,11.4,0,0,0,2.6,6.3,8.4,8.4,0,0,1,1.4,2.4,2.9,2.9,0,0,0,1,1.2,1.6,1.6,0,0,1,.8.6,9,9,0,0,0,1.9,1.5,17,17,0,0,1,3.8,2.6,30.5,30.5,0,0,0,7.6,5.3,38,38,0,0,1,5.3,3.6,20.5,20.5,0,0,0,3.1,2,36.4,36.4,0,0,1,7,4.5C-139,62.5-138.8,62.9-138.4,62.9Z" transform="translate(180.5 4.8)"/><path class="b" d="M-138.4,62.9c-.4,0-.6-.4-.8-.6a36.4,36.4,0,0,0-7-4.5,20.5,20.5,0,0,1-3.1-2,38,38,0,0,0-5.3-3.6,30.5,30.5,0,0,1-7.6-5.3,17,17,0,0,0-3.8-2.6,9,9,0,0,1-1.9-1.5,1.6,1.6,0,0,0-.8-.6,2.9,2.9,0,0,1-1-1.2,8.4,8.4,0,0,0-1.4-2.4,11.4,11.4,0,0,1-2.6-6.3,33.9,33.9,0,0,1-.2-4.5,7.8,7.8,0,0,1,.9-3.4c.7-1,1.1-2.2,1.9-3.2a14.7,14.7,0,0,0,1.4-2.8,1.9,1.9,0,0,1,.5-1,13.7,13.7,0,0,0,2.6-3.7,4.5,4.5,0,0,1,2.4-2.3,2.8,2.8,0,0,0,1.4-1,12.1,12.1,0,0,0,2.4-2.1,3.8,3.8,0,0,1,1.8-1.2,4.4,4.4,0,0,0,2.5-1.5c.2-.3.5-.3.7-.4,3.4-1.2,6.8-2.3,10.3-3.3l3.3-.7,1.2-.5A8.8,8.8,0,0,1-137,.4l2.7-.2,9.3-1.3c1.4-.2,2.9.1,4.3-.1h5.1l7-.3a56.2,56.2,0,0,0,5.8-.2,18.6,18.6,0,0,1,3.3.4,6.5,6.5,0,0,0,2.4-.2,4.5,4.5,0,0,1,2.3,0,16.1,16.1,0,0,0,3.1,0c3,.2,6,.2,8.9.2,1.4,0,2.7-.3,4.1-.2h1.5a22.4,22.4,0,0,0,7.3.2,22.5,22.5,0,0,1,5.8,0,81.1,81.1,0,0,0,8.6.5H-49a70,70,0,0,0,9.2-.4A83.6,83.6,0,0,1-28.6-1l6.1.4a117.5,117.5,0,0,0,11.9.3l9-.3a15.7,15.7,0,0,1,3,.5A51.7,51.7,0,0,0,11,.6,22.7,22.7,0,0,0,15.5.3c1-.2,2,.4,3,.5s3.7.2,5.6.1l4.2.3a18,18,0,0,0,4,.3,82.1,82.1,0,0,1,9.9.5,19.7,19.7,0,0,0,4.2,0c2.1-.1,4.1-.2,6.2-.1,5.7.5,11.4.7,17.1,1.5a31.5,31.5,0,0,0,8.1.4,34.8,34.8,0,0,1,5.5.4c2.4.3,4.9.1,7.4.3s5.8.7,8.8,1.2a38.9,38.9,0,0,0,4.9.4c3.6.1,7.2.5,10.8.7s6,.4,9,.8l6.8.9c2.1.3,4.2.7,6.3.8a10.6,10.6,0,0,0,2.5-.2,10.5,10.5,0,0,1,2.5.1,5.7,5.7,0,0,0,2.6.1,8.9,8.9,0,0,1,2.8.3,28.3,28.3,0,0,0,5,.2,84.9,84.9,0,0,1,8.8.5,38.5,38.5,0,0,0,4.8-.1c5.2.1,10.5.1,15.7.7,1.6.2,3.1-.1,4.6,0s3.6.2,5.4.5a11.3,11.3,0,0,1,2.8.9,10.8,10.8,0,0,0,3.2.9,11.3,11.3,0,0,1,5,1.9c1.7,1,3.5,1.9,5.1,3a40,40,0,0,1,4.9,3.5,8.7,8.7,0,0,1,2.2,3.1,3.4,3.4,0,0,1,.1,1c.3,1.7.9,3.4,1.3,5.1a1.1,1.1,0,0,1,.1.5c-.4,1.4-.1,2.9-.8,4.3a5.1,5.1,0,0,0-.3,2.2,1.8,1.8,0,0,1-.6,1.3,4.6,4.6,0,0,0-.9,2.3c-.5,2-.9,4-1.3,6.1a1.5,1.5,0,0,1-.5.7l-2.6,2.4a9.4,9.4,0,0,1-1.2.9,15.7,15.7,0,0,0-2.6,1.9l-.8.5a8.5,8.5,0,0,0-2.6,1.1c-1,.7-2.3.5-3.4,1a9.7,9.7,0,0,1-3.8.5c-.8,0-1.6.5-2.5.4s-3.9-.1-5.8-.9l-1.9-.9c-.3-.1-.5-.5-.8,0s-.1,0-.2-.1-2.5-1.4-3.9-2l-2-.8H178c-1.2,0-1.8-1-2.6-1.6s-1.6-.9-2.4-1.5a8.6,8.6,0,0,0-1.6-1,1.4,1.4,0,0,0-.9-.1c-1.5.2-3-.4-4.6-.3l-3.4.2a14.8,14.8,0,0,1-2.1.1,14.1,14.1,0,0,0-4.5.7,74,74,0,0,1-8.1,2.1,8,8,0,0,0-1.6.8l-2.7,1.1a3,3,0,0,0-1.4,1.1,13.1,13.1,0,0,1-2.4,1.7c-1.3.9-2.5,2-3.9,2.8a14.3,14.3,0,0,0-3,2,4,4,0,0,1-1.5,1,4.7,4.7,0,0,0-2.1,1.6,14.5,14.5,0,0,1-2.2,2.1,15.7,15.7,0,0,0-2.7,2.5l-1,.8a12.6,12.6,0,0,0-3.2,2.5,8.6,8.6,0,0,1-2.4,1.7,3.7,3.7,0,0,0-1.3,1.2,13.7,13.7,0,0,1-2.5,2.3l-2.5,1.7c-1,.8-1.6,2.1-2.7,2.8a33,33,0,0,1-3.2,1.8c-.4.3-1.1.4-1.2,1.1s-.2.2-.4.2l-2,.7c-.2.1-.8-.1-.7.5l-.5.2c-2.1-.3-4,.5-6,.8a12.9,12.9,0,0,1-4.8.1,5.3,5.3,0,0,0-1.3.1,29.4,29.4,0,0,1-4.2,0,19.7,19.7,0,0,0-4.2,0,53,53,0,0,1-6.9,0,13.3,13.3,0,0,0-2.8.3,50.6,50.6,0,0,1-5.5.2c-3.1.1-6.2.1-9.4-.1-5.3-.3-10.6,0-15.9-.4-2-.1-4,0-6,0s-2,.6-3,.7h-.6a24.3,24.3,0,0,0-6,.5,2.2,2.2,0,0,1-1.4-.1c-.7-.3-1.3,0-2,.1a10.8,10.8,0,0,1-4,.3,10.9,10.9,0,0,0-3.1-.1l-2.2.3c-3.2,0-6.4.5-9.6.6-.8,0-1.6.5-2.4.3s-2.9.2-4.4.3l-6.4.3c-2.2.2-4.3.6-6.5.7a33.9,33.9,0,0,0-4.5.2,36.9,36.9,0,0,1-7.4.5h-9.1c-2.2,0-4.3-.3-6.4-.5l-3-.3a6.5,6.5,0,0,1-2-.4h-1a15.1,15.1,0,0,1-5.2-.3h-1c-5.2-.3-10.5-.2-15.8-.1-1.1,0-2.1-.5-3.2-.3s-.6-.1-.8.1a7.8,7.8,0,0,1-4,.3c-2.1-.4-4.3-.1-6.4-.5a6.7,6.7,0,0,0-2,.1c-2.9.1-5.7-.5-8.6-.3A15.5,15.5,0,0,1-102,88c-.9-.2-1.6-.9-2.5-1.1a10.8,10.8,0,0,1-2.7-1c-2.3-1.2-4.7-2.1-6.8-3.7a16.4,16.4,0,0,0-2.9-1.6h-.3c-.2-.9-1.1-1.3-1.4-2.1a8,8,0,0,0-2.2-2.3c-1.9-1.9-4.3-3.3-6.2-5.3a9.4,9.4,0,0,0-3.5-2c-.4-.2-.7-.3-.8-.8a1.8,1.8,0,0,0-1.1-1.3c-1.2-.5-2-1.5-3.1-2.2l-2.3-1.7c-.3-.1-.5-.2-.6.2ZM207.2,47.3a.6.6,0,0,0-.7.1,1.8,1.8,0,0,1-1.4.4c-.4.1-.7-.1-1.1-.1a32.3,32.3,0,0,1-4.4.1c-2.5.3-5-.6-7.4-1a26.9,26.9,0,0,1-4.6-1.4,44,44,0,0,1-5-2.1,8.3,8.3,0,0,1-1.6-.9l-2.6-1.9a8,8,0,0,1-2.3-1.8,11.4,11.4,0,0,0-2.9-2.9c-1.7-1.1-3.2-2.4-4.8-3.5a13.8,13.8,0,0,0-3.8-2l-1.7-.7a6.2,6.2,0,0,0-3.3-.3c-.5.1-1.1.5-1.6.4a5.5,5.5,0,0,0-1.8-.1c-.5,0-.5.1-.4.5s.6.5.7.9,1.4,1.5,1.9,2.4a3.8,3.8,0,0,0,1.1,1.1,11.4,11.4,0,0,0,1.9,1.9c1.3,1,2.2,2.4,3.6,3.3a13,13,0,0,1,2.2,1.9c1.1,1.1,2.4,2,3.5,3a22.9,22.9,0,0,0,4.1,2.8c1.4.8,2.9,1.6,4.4,2.6a31.7,31.7,0,0,0,4.5,2.3,34.2,34.2,0,0,0,3.4,1.3c1.2.2,2.3.8,3.5.5a.1.1,0,0,0,.1.1c1.6.6,3.3.1,4.9.1a9.1,9.1,0,0,0,3-1.1c1.4-.6,2.9-1,4.3-1.7a15.4,15.4,0,0,0,1.9-.8c.8-.6,1.4-1.6,2.4-2a1.8,1.8,0,0,0,.7-1.1c.5-.1.8-.6,1.2-.9s.2-.2.1-.4-.3,0-.4.1S207.6,46.9,207.2,47.3ZM27.6,85.1l2-.2c2.6-.1,5.2-.9,7.9-.7s6.3,0,9.4-.1h5.7c1.1,0,2.2.2,3.4.1a38.4,38.4,0,0,1,4.8,0c1.5,0,2.9.1,4.4,0h1.6a46.9,46.9,0,0,0,5.3,0H76c.6,0,1,.3,1.4-.7s1.7-2.9,2.7-4.4,1.8-2.7,2.7-4.3c-2.5.6-4.9,1.4-7.3,1.8-.3,0-.6,0-.7-.2a1.7,1.7,0,0,0-1.1-.6,5.5,5.5,0,0,0-1.8-.2,11,11,0,0,0-2.6-.2,40.1,40.1,0,0,1-4.9.1c-1.2,0-2.4-.4-3.5-.4H56.4l-5.1-.3c-2.3-.1-4.5-.3-6.8-.3H39.8a8.5,8.5,0,0,1-3.2-.3c-.2-.1-.4-.2-.6,0s-.5.3-.9.3a2.7,2.7,0,0,0-2.2,1l-1.8,1.7c-.8.8-1.7,1.4-2.4,2.2a9,9,0,0,0-1.8,3.5,2.2,2.2,0,0,1-1.2,1.9c-.3-.3-.7,0-1.1,0h-.1c-.1-.1-.1-.3-.3-.4s-.6-.5-.2-1.1a3.4,3.4,0,0,0,.6-1.2,9.9,9.9,0,0,1,2.2-3.7,28.1,28.1,0,0,1,3.5-3.4c.1-.2.4-.2.3-.5s-.4-.1-.5-.1a21.7,21.7,0,0,0-3.6-.1,7.6,7.6,0,0,1-1.5-.1,19.4,19.4,0,0,1-3.4.2H19.3A15.5,15.5,0,0,1,15,74h-.3a20.1,20.1,0,0,1-4.2.5l-6.7.3-4.5.5-1.3.2c-1,.1-2,.5-3,0a.8.8,0,0,0-.8.2c-.2.3-.6.3-1,.3l-1.9.2c-2.6.5-5.2.3-7.7.5h-3.2c-2.6.3-5.1.1-7.7.4l-3.8.2c-1,0-2,.2-3.1.1a2.9,2.9,0,0,0-1.6-.1c-1.1.2-2.3-.2-3.4,0s-1.5-.2-2,.2L-43,78.8a21.5,21.5,0,0,1-2.8,2.3c-.8.5-1.4,1.1-2.2,1.5s-1.3.6-1.6,1.4a1.4,1.4,0,0,1-.7.6,6.5,6.5,0,0,0-2.9,3c-.4.7-.1.7.3.7h12.4l5.6.3c2.5.1,5.1.2,7.6.1l4.7-.3,3.7-.3,3.3-.3,4.6-.6,7.1-.7a50.9,50.9,0,0,1,5.5-.4H4.8c1.1,0,2.1-.3,3.2-.3s4.7-.3,7-.4l3.4-.3c1.1,0,2.2-.2,3.3-.1l2.8-.2A16.1,16.1,0,0,0,27.6,85.1ZM-119.8,9.6l.9-.2a.2.2,0,0,0,.2-.2c-.1-.2-.2-.2-.3-.2a1.2,1.2,0,0,1-.8.2h-.4l-3.3.6c-1.3.3-2.5.2-3.8.6a29.9,29.9,0,0,1-6.6,1.4,54.1,54.1,0,0,0-5.8,1.2,72.1,72.1,0,0,0-9.1,2.5c-1.8.7-3.7,1.2-5.6,1.8a28.7,28.7,0,0,0-4,1.8,15.9,15.9,0,0,1-2.7,1.2c-1.3.3-2.5,1-3.7,1.3a6.1,6.1,0,0,0-1.3.3l-2.1,1.4c-.6.5-1.3,1.2-2.3.8s-.4.1-.4.3-1,2.3-1.2,3.5a15.8,15.8,0,0,0,.5,6.5,9.9,9.9,0,0,0,1.7,3.2c.6.8,1.4,1.6,2.1,2.4l1.9,2c.3.3.6.3.9-.1a4.1,4.1,0,0,1,.7-1.1l3.6-4,.7-.7a7.3,7.3,0,0,0,1.7-1.8,16.1,16.1,0,0,1,2.4-2.8,15.6,15.6,0,0,1,2-1.6c.4-.3,1-.5,1.2-.9s2.4-2.3,3.7-3.3,2.9-1.9,4.3-2.9.7-.7,1.1-.9a14,14,0,0,0,3.2-2.2,2.3,2.3,0,0,1,1-.7c1.2-.4,2.1-1.4,3.3-1.9a11.7,11.7,0,0,0,2.7-1.5,35.4,35.4,0,0,0,3.3-1.9,17.8,17.8,0,0,1,3-1.7,34,34,0,0,1,3.4-1.2C-122.4,10.4-121,10.1-119.8,9.6Zm197.4,5c.3-.1.7,0,.8-.5H77.3l-2.1-.4a38.8,38.8,0,0,1-4.8-.4H69.1L65.9,13c-1.1,0-2.1-.3-3.2-.4L59,12.3c-1.1-.1-2-.8-3.1-.5h-1l-2.8-.3a32.8,32.8,0,0,1-6.3-.5l-2.7-.3a11.1,11.1,0,0,1-3.6-.4c-.1-.1-.3,0-.4.1s-.4.1-.6.1l-2.4-.2-3.3-.2a10.5,10.5,0,0,1-3.5-.2,4.6,4.6,0,0,0-2,.2l-3.8,1.1-2.9,1.3c-1.4.7-2.8,1.6-4.3,2.3A25.8,25.8,0,0,0,11.4,18c-1.3,1.1-2.3,2.6-3.6,3.7s-.3.3-.2.5.3.2.4.2l4.8.4c1.8.2,3.6.2,5.5.3l2.6.2a8.2,8.2,0,0,1,2.7.2,15.2,15.2,0,0,0,2.1.3,16.1,16.1,0,0,1,3.1.1,32.9,32.9,0,0,0,4.4.5c1.5,0,3,.2,4.4.3l2.9.2,6.4.3,5.3.4c.3,0,.7.2,1,.1a7,7,0,0,1,2.9.1h3.2a48.7,48.7,0,0,0,5.4.1c.4,0,1.1.3,1-.7s0-.1,0-.1,1-1.4,1.6-2,1.3-1.5,2-2.2.7-1.2,1.2-1.6,1.3-1.4,2.1-2A11,11,0,0,1,74.7,16,15.5,15.5,0,0,0,77.6,14.6ZM21,9.9c.3,0,.7.1.7-.2s-.5,0-.7-.1-1.5-.4-2.4-.2a30.8,30.8,0,0,1-5.3.3H9c-2.5-.2-4.9-.2-7.3-.5s-7-1-10.6-1L-13,7.9l-2.8-.2-3.5-.2c-1.2,0-2.3.6-3.4.4a4.1,4.1,0,0,0-2.2.2h-.4c-1.7,0-3.2.8-4.7,1.3l-2.2.8a19.9,19.9,0,0,0-2.6.9A23,23,0,0,1-40,13.7l-1.2.3-2.9,1.7a42.3,42.3,0,0,0-4.2,2.2l-4.4,2.8A20.1,20.1,0,0,0-55.5,23c-.2.2-.4.5.1.5a4.4,4.4,0,0,0,1.6.2c2.3-.3,4.5.1,6.8-.2s2,0,3,0l2.9-.2,2.8-.3a21.7,21.7,0,0,1,3.6-.2h1.2c2.6-.3,5.2-.1,7.7-.2s2,.1,2.9,0a37.5,37.5,0,0,1,5.8-.1H-12c1.2.1,2.3,0,3.5,0h4.3a25.4,25.4,0,0,1,3.9-.1c1.1.1,2.1-.1,3.1-.1a2.1,2.1,0,0,0,1.8-.9c.4-.4,1-.6,1.3-1a26.7,26.7,0,0,1,3.7-3.8,23.2,23.2,0,0,1,5.3-3.5,13.7,13.7,0,0,0,3.2-1.6,2.5,2.5,0,0,1,1.2-.8A2.7,2.7,0,0,0,21,9.9ZM-75.4,6.4a1.3,1.3,0,0,0,1.2-.6,1.8,1.8,0,0,1-1.2.2h-1.4c-2.7.4-5.5.5-8.3.7h-16.8a24.2,24.2,0,0,0-3.8.2l-4.7.5c-.4.1-.8.6-.6.9s-.3.6-.5.7l-5,1.3c-1.7.5-3.4,1.4-5.2,1.8l-3.3,1.1a8.9,8.9,0,0,0-3.1,1.5c-1.1.8-2.4,1.2-3.5,2.1s-1.2.5-1.7.9-.5,0-.8.2a8.7,8.7,0,0,1-3.8,2,.1.1,0,0,0-.1.1c-.1.9-.9,1.1-1.6,1.5s-2.5,1.9-3.9,2.7-1.6.7-2,1.5l-.4.3c-1.4.4-2.2,1.7-3.4,2.5a13,13,0,0,0-2.2,1.9,24.2,24.2,0,0,0-3.3,3.1l-4.2,4.3c-.5.6-1.3.9-1.6,1.7s-.7.9-1.1,1.3-.7,1.6-1.4,2.2-.1.1-.1.2a2,2,0,0,0,.6,1.2l1.4.9c1.3.8,2.6,1.8,4,2.5a.2.2,0,0,1,.2.2c.1.4.4.5.7.6a1.8,1.8,0,0,1,.9.4,15.3,15.3,0,0,0,2.5,1.6c1.8.9,3.4,2.2,5.2,3.2s1,.6,1.5-.1a7.1,7.1,0,0,0,.7-.9,6.1,6.1,0,0,0,.7-1l2.6-2.7a13.7,13.7,0,0,1,1.6-1.8l2.9-2.6a22,22,0,0,0,2.7-2.6l3.9-4c1.3-1.5,2.8-2.7,4.1-4.1s.8-.4,1-.8a8.5,8.5,0,0,1,2.6-2.4l3.1-2.5c1.2-1,2.6-1.9,3.8-3.1s1.3-.7,1.7-1.2,2.6-1.9,3.8-2.7,2.2-.8,3.2-1.4l2.8-1.4a11.1,11.1,0,0,1,3.6-1.8l.4-.2c.8-.6,1.8-.8,2.6-1.4l2.3-1c2.4-1,4.7-2.1,7.2-2.9a18.2,18.2,0,0,0,3-1.1L-82.4,9l6.1-2.2C-76,6.7-75.6,6.7-75.4,6.4Zm214,5.7c.1-.5-.3-1.2-.8-1.2a4.5,4.5,0,0,1-1.1-.3c-.6,0-1.2-.4-1.7-.2a7.8,7.8,0,0,1-3.7.1,22.8,22.8,0,0,0-5.2-.4,53.2,53.2,0,0,1-5.6-.6c-1.2-.1-2.4-.6-3.6-.6a23.3,23.3,0,0,1-3.7-.4L107,7.9a34.4,34.4,0,0,0-4.6-.3l-6.6-.5-6.4-.5-4.6-.4c-1.7-.1-3.4-.3-5.1-.3a40.2,40.2,0,0,0-4.9-.2c-1.6,0-3.2-.2-4.7-.3h-1c-2.2-.1-4.4-.3-6.6-.3L59,4.9c-1.1-.1-2.2,0-3.3,0l-7.5-.6c-.7-.1-1.5.2-2.1-.1a1.1,1.1,0,0,0-1.1,0c-.9.4-1.9-.3-2.8.1s-3.3-.1-4.7-.9h-.3a12.1,12.1,0,0,1-3.8,0l-4.5-.3c-1.6-.3-3.3-.1-5-.3a6.9,6.9,0,0,0-2-.1,21.6,21.6,0,0,1-4.4.1,13.1,13.1,0,0,0-2.8,0c-1.4.4-2.8-.1-4.1.1s-1.9-.3-3-.2-4.1-.2-6.1-.4L-1.7,2h-2a6.7,6.7,0,0,0-2-.1,5.5,5.5,0,0,1-1.8-.1c-.7-.2-1.4-.6-2.1-.1h-.3a14.3,14.3,0,0,0-3.6-.2l-4.8-.2h-4.8c-1.5,0-3.1.1-4.6,0s-2.9-.1-4.3-.3-2.8.2-4.1,0H-46.7a16.3,16.3,0,0,0-4.4.1,4,4,0,0,1-1.1,0c-1.6-.6-3.2.1-4.8-.1h-7.4l-1.7.2A43.3,43.3,0,0,0-72.3.7c-2.1.1-4.1-.1-6.1,0h-7.4a28,28,0,0,0-4.1,0c-1.4,0-2.9-.1-4.4,0l-4-.2c-1.2,0-2.4-.2-3.6-.1s-2.4-.3-3.6-.2-3.9-.1-5.9.1l-3.2.3c-1.5.2-3,.2-4.6.3l-3.8.3-6,.7-5.1.6a31,31,0,0,0-5,.9c-1.3.3-2.8,0-4,.8s0,.1-.1,0-1.3.7-2.2.4-1.1.3-1.7.3h-1.2L-155,7.8c-.3.1-.8.1-1,.4a7,7,0,0,1-2.1,1.4,8.2,8.2,0,0,0-2.6,2.3c-.4.4-.7,1-1.2,1.3l-2.2,1.9c-.2.2-.5.2-.6.5a14.6,14.6,0,0,1-2.1,2.8c-.2.3-.6.4-.8.8s-.4.6-.2.8a.8.8,0,0,0,.9,0c.7-.4,1.6-.4,2.3-1h.6a4.7,4.7,0,0,0,1.6-.4l3.7-1.8a47.5,47.5,0,0,1,6.3-2.3l3.3-1c.9-.4,1.9-.6,2.8-.9s2-.4,3-.9h.3c1.4,0,2.7-.6,4.2-.8l4.2-.7,3.4-.6a2.9,2.9,0,0,1,.8-.4c1.5-.1,3-.6,4.5-.8l4-.8a41.1,41.1,0,0,0,4.7-.7c.5-.2,1,.1,1.5-.2a.8.8,0,0,1,.7-.2c1.9-.3,3.8-.4,5.7-.8a32.4,32.4,0,0,1,6.2-.5,38.4,38.4,0,0,1,4.8,0c1.5.1,3-.4,4.6-.4H-91l2.7.2a29.1,29.1,0,0,0,5.1-.3c2.1-.1,4.1-.1,6.1-.3a48.6,48.6,0,0,1,6.6-.3l6.9.2h13.3c1.6.2,3.2.1,4.9.3a36.5,36.5,0,0,0,4.7.1H-34c3.4.1,6.7.4,10.1.6l5.1.2,4.1.2h3l4.5.3A29.8,29.8,0,0,1-3,6.6c2.4.4,4.9.5,7.3.7l6.9.5a47.3,47.3,0,0,0,5.3-.1c2.5-.3,5,.2,7.5.1h1.9c1.2.3,2.4-.3,3.6.1a2.9,2.9,0,0,0,1,.3h3.3a33.5,33.5,0,0,0,7.1.3,10.5,10.5,0,0,1,2.5.1c1.9.2,3.8.7,5.7.8a18.2,18.2,0,0,0,3.2.3l3.1.2,5.1.6a47.4,47.4,0,0,0,7.5.6,28.5,28.5,0,0,0,4.1.4A26,26,0,0,1,76,12c.9,0,1.6.4,2.4.4l3.9.4a3.7,3.7,0,0,0,1.8.1c.6-.3,1.2-.6,1.6.2l.5.2,2,.3,4.6.4c1.3,0,2.5.4,3.8.5l4.6.3h1.2c2.4-.4,4.7-.2,7.1-.6a43.4,43.4,0,0,1,6.3-.5l4.1-.4a21.2,21.2,0,0,0,4.4-.6c1.5-.5,3-.3,4.5-.8a11,11,0,0,1,2.6-.2c.6,0,1.3-.2,1.8.3s.6.3.8-.1.2-.4.3-.2.5.1.7.2,1.2-.1,1.6.1,1.3.4,2,.8v-.8ZM8.8,72.4a16.7,16.7,0,0,0,3.2-.2,12,12,0,0,1,1.9,0c2.1.2,4.3-.2,6.5,0a45.6,45.6,0,0,0,6.4-.1l5,.2a3.2,3.2,0,0,0,2.3-.7c.9-.6,1.5-.5,2.1.5s.3.3.5.3a10.3,10.3,0,0,0,1.7.1c1.8-.2,3.6-.1,5.4-.2s6.1.2,9.2.4h4.8c1.4.1,2.8-.1,4.2.1a31.8,31.8,0,0,0,6.2.3c2.3-.1,4.5.2,6.8.3.4.1.5.2.6.5s.2.6.5.4a11.4,11.4,0,0,0,2.5-.6,5.6,5.6,0,0,1,1.8-.7c1.1-.1,2.1-.5,3.2-.7l3.2-.7a20.7,20.7,0,0,0,3.3-1l2.4-1.3,5.8-3.2c.6-.4,1-1.1,1.6-1.5l1.6-1.3c1.1-1,2.1-2.1,3-3.1a13.6,13.6,0,0,0,2.6-4.5,13.4,13.4,0,0,0,.7-1.8c.1-.5.6-.8.6-1.2a5.8,5.8,0,0,0,.4-1.8,9.9,9.9,0,0,1,.2-1.7,3.9,3.9,0,0,0,.2-1.5,29.9,29.9,0,0,1-.4-4.1c0-1.2-1-1.8-1.4-2.8s-.9-.9-1.4-1.4-1-1.3-1.9-1.1h-.3c-.1-.8-1.6-.6-1.2-1.7s-.1-.2-.2-.3a16.7,16.7,0,0,0-2.3-1.2l-3.8-1.5c-1.2-.5-2.4-.9-3.6-1.5l-3.2-.9-2.9-.7c-.8-.3-1.8-.3-2.6-.6a7.3,7.3,0,0,0-2-.5,7.6,7.6,0,0,1-1.6-.3,38.3,38.3,0,0,0-5.8-.7c-.2,0-.5.3-.6.2s-1-.3-1.6-.3a58.6,58.6,0,0,1-5.9-.1,7.5,7.5,0,0,0-2.1.2A35,35,0,0,1,69,29.8l2.6.8c.6.3.8,1,1.4,1.1a2.3,2.3,0,0,1,1,.4c.9,1,2.2,1.5,3.2,2.4L79,35.9a3.8,3.8,0,0,1,1.3,2.2,11.9,11.9,0,0,1,1.1,4.1c.1.6.6.9.7,1.5s.1,2.2-1.8,2.3-.8.3-1.3.4-.9-.2-1.3-.1a26.6,26.6,0,0,1-6.3.3H70.3a.9.9,0,0,1-.7-1c.1-.4-.1-.8-.1-1.2s-.7-1.4-.8-2.1-1.1-1.5-1.7-2.1a2.4,2.4,0,0,0-2.2-.4,4.1,4.1,0,0,0-3.1,1.7,10.1,10.1,0,0,0-1.3,3,19.7,19.7,0,0,0-.6,4.8,10.2,10.2,0,0,0,.5,3.9,10.8,10.8,0,0,1,.8,1.9,3.2,3.2,0,0,0,1.4,2.4,11.4,11.4,0,0,0,4,1.5,2,2,0,0,0,1.7,0,11.2,11.2,0,0,0,2.2-1.6c.2-.1.3-.2.3-.4a16.1,16.1,0,0,0,.1-3.1c-.2-1.5.2-2.1,1.7-2.5s.3-.2.3.1.5.2.7.3,1,0,1.3.2a7.3,7.3,0,0,0,1.9.7,15.5,15.5,0,0,0,2.9.4,22,22,0,0,1,3.6.4c.3,0,.5.3.6.6a9.7,9.7,0,0,1,.2,3.8,20.6,20.6,0,0,0-.3,2.6,2.4,2.4,0,0,1-.5,1.4c-.8.9-1.5,1.8-1.3,3s0,1-.2,1-1,1.2-1.9.9-.3.2-.3.4a1.5,1.5,0,0,1-1.3,1,13.3,13.3,0,0,0-2.8,1,2.8,2.8,0,0,1-1.3.3A2.4,2.4,0,0,0,72,70h-.3a3.1,3.1,0,0,0-1.9.4,12.3,12.3,0,0,1-3.2.7,47.4,47.4,0,0,1-6.5.5c-1.9,0-3.7-.4-5.6-.5a15.4,15.4,0,0,1-3-.4,14.6,14.6,0,0,1-3-.7,7.7,7.7,0,0,0-2.9-1c-2-.2-3.3-1.6-4.9-2.4s-.1-.1-.2-.2a2.9,2.9,0,0,0-1-1.2,3.1,3.1,0,0,1-.8-1.5c-.1-.2.2-.7-.1-1s-.6-.7-.4-1.3-.4-.7-.4-1.1a21.4,21.4,0,0,1-.6-3.5,21,21,0,0,0-.7-5.6,15.5,15.5,0,0,1-.1-4.3,13,13,0,0,1,.4-4.8c.7-1.8.6-3.9,1.5-5.8a30.5,30.5,0,0,0,1.3-3.2c.1-.3.2-.7.6-.8s2.2-2.1,3.7-2.7l2.6-1.1,2.3-.8c.4.2.7,0,1.1-.1a2.2,2.2,0,0,0-1.1-.2,3.3,3.3,0,0,0-2.2-.3h-.3c-.1-.5-.3-.3-.5-.1h-.7c-1.3-.4-2.7-.1-4.1-.4s-2.9-.1-4.4-.3-3-.3-4.5-.3-4.5-.4-6.7-.5L19,25.2c-1.4-.2-2.9-.1-4.4-.3a25.8,25.8,0,0,0-4.8-.3l-7.2-.3c-1,0-2,.2-2.9.1a22.6,22.6,0,0,0-3.7.1H-5c-.6.2-1.2-.2-1.7.2a7.6,7.6,0,0,1-1.5-.1c-.1-.1-.3-.1-.3.1s-1.2-.3-1.7-.1-.6-.2-1-.1h-1.6a20.9,20.9,0,0,1-2.5,0h-2a56.1,56.1,0,0,1-5.8-.1c-.5-.1-.9.2-1.4.2l-9.4.4-7.7.7c-2.9.3-5.9.1-8.8.2h-2.8c-.2,0-.5.2-.7.1h-3.6c-2.6.1-5.3.4-7.9.4l-4.7.4c-.3.1-.8,0-1.1.3a.8.8,0,0,0,.8.3,2,2,0,0,1,1.5.1,4.4,4.4,0,0,0,1.6.6c1.1.3,2.2.4,3.3.6a1.2,1.2,0,0,1,1.2,1.3,5.9,5.9,0,0,1-.2,1.4c0,.3-.4.7-.5,1.1s-.5,1.4-.3,2.2a9.2,9.2,0,0,1,.1,3.3,16.2,16.2,0,0,0-.1,4.4c0,.6.3.9.9.8h2.6c.3,0,.3,0,.3-.3V40.2a28.4,28.4,0,0,0-.6-5,14.3,14.3,0,0,1,.2-4.1c.1-.9.6-1.8.1-2.7a.4.4,0,0,1,.2-.5c.7-.4,1.3-1.2,2.2-.9h.8a11.7,11.7,0,0,1,3.2-.2,15.5,15.5,0,0,1,3.1.4c1.1.3,2.2-.2,3.2.4h.5c.3-.1.5-.2.7-.1a21.7,21.7,0,0,0,3.6.1c.5,0,.9-.4,1.3-.1a1.6,1.6,0,0,0,1.5.2,1.1,1.1,0,0,1,.8.1c.5.1.9.8.6,1.1s-.4,1.2-.3,1.8.2,3.9.2,5.8a30.5,30.5,0,0,1-.1,4.3,41,41,0,0,0-.2,4.9,11.1,11.1,0,0,1-.2,1.9c0,1,.1,2,.2,3a48.5,48.5,0,0,1-.2,6.6v3.8c0,.6-.4,1.1-.2,1.8a3.4,3.4,0,0,1,0,2.6c.6.6.1,1.2.1,1.8s0,.8.1,1.2.1,2.1.2,3.2a1.4,1.4,0,0,1-2,1.4,3.9,3.9,0,0,0-1.5-.1h-2.4a3,3,0,0,0-1.3-.1,5.5,5.5,0,0,1-2.2.1,32.9,32.9,0,0,0-5.4-.5h-.4a5.3,5.3,0,0,1-2.8.3h-.8c-1,0-1.5-.5-1.4-1.5v-.9c0-.3,0-.7.6-.8h-.7a2.2,2.2,0,0,1,0-.8c.2-.1.1-.3.1-.4a2.8,2.8,0,0,1,.1-1.3c.1,0,.2,0,.2-.1s-.1-.2-.2-.3v-.4c.3.1.3-.2.6-.2l-.5-.2a1.3,1.3,0,0,1-.1-.6h0a37.3,37.3,0,0,1-.1-4.7c.1-.7-.1-.9-.8-.9h-3c-1,0-1-.1-.7.9s.1.1.1.2a36.2,36.2,0,0,1-.2,4.7c0,1,.2,1.9.2,2.9a15.4,15.4,0,0,0,.4,3c0,.6-.1.9-.8,1s-1.5-.2-2.3-.1h-1.4c-1.1-.1-2.2-.5-3.4-.5h-4.4l-4.1-.2h-1.6a.4.4,0,0,0-.4.2,1.7,1.7,0,0,1-2.4.1c-.1-.1-.3-.3-.2-.3s-.2-.6-.4-.6-.5-.7-.1-.8.7-1,.6-1.6.1-.5.1-.7,0-.7-.1-1a6.5,6.5,0,0,1-.5-2c-.1-1.3-.1-2.6-.2-4a27.4,27.4,0,0,1,.1-6.4c.3-1.8,0-3.6.2-5.4s-.2-3.1-.1-4.7a19.7,19.7,0,0,0,.1-4.2,6.5,6.5,0,0,1,.2-2c.2-1.2-.3-2.4.3-3.5a.4.4,0,0,0-.2-.4.2.2,0,0,1,0-.4c.4-.4,0-.9,0-1.3s-.1-.3,0-.3-.2-1,.3-1.3v-.2a2.7,2.7,0,0,1-1.2-.9.8.8,0,0,0-.8-.1,16.8,16.8,0,0,1-2.4.6c-.7.2-1.5,0-2.1.3a8.1,8.1,0,0,1-2.2.7,32.6,32.6,0,0,0-4.4,1.5l-3.2,1.6-2.5,1.3-2,1.4c-1.4,1.1-2.9,2-4.2,3.2a15.4,15.4,0,0,0-1.9,2.8c-1.4,2.2-1,4.7-1.5,7.1a.4.4,0,0,0,.1.3,5.3,5.3,0,0,1,.8,2.4c.2,1.3,1.1,2.3,1.4,3.5a14.5,14.5,0,0,0,1.1,2.9c.6,1.4,1.5,2.7,2,4.1l.3.3c.7.4,1.1,1,1.8,1.4l2.3,1.7a42.3,42.3,0,0,0,4,2.4A40.2,40.2,0,0,0-94,70.8c1.8.7,3.7,1.2,5.5,1.8a26.7,26.7,0,0,0,4.8.8c2.4.2,4.7.2,7.1.5l5.1.4a34.2,34.2,0,0,0,4.5.4c2.4.1,4.8.5,7.3.6l5.9.2h7.4c3.5-.2,7-.1,10.5-.2h3.6a19.7,19.7,0,0,0,4.2-.1l4.3-.3,5.8-.2,5.7-.2,5.6-.5,4.8-.7L1.6,73l4.1-.4A16.2,16.2,0,0,0,8.8,72.4ZM-114.1,47c.1-1.5,0-3,.7-4.3a23.9,23.9,0,0,1,2.1-3.4,16.6,16.6,0,0,1,3.5-3.5,8,8,0,0,0,1.9-1.3,5.3,5.3,0,0,1,2-1.3l1.8-1A16.7,16.7,0,0,1-99.8,31c1.7-.6,3.1-1.6,4.9-2a22.9,22.9,0,0,0,2.8-.8c2.4-.3,4.7-1.1,7.1-1.5l3.1-.6,2.3-.5,2.9-.5a21.1,21.1,0,0,1,2.5-.2c1.9-.4,3.8-.5,5.7-.8s4,0,6-.2l3-.2c.5,0,.9-.2.9-.8s.5-.9.9-1.2l.9-.5a10.8,10.8,0,0,1,3.2-2.4c.3-.1.6-.1.8-.3a9.2,9.2,0,0,1,2.2-1.7,11.6,11.6,0,0,1,4.1-2.2l1.4-.7A15,15,0,0,1-41.9,12a13.6,13.6,0,0,1,1.7-.4c1.5-.6,2.9-1.6,4.4-2.3a6.9,6.9,0,0,1,1.5-.7,18.5,18.5,0,0,0,4-1.2c.1-.1.3-.1.2-.3s-.2-.2-.3-.2a11,11,0,0,1-1.8-.2,3.3,3.3,0,0,0-2.4-.1c-.7.4-1.4.1-2.2.1s-2.4-.2-3.5-.1-1.2-.3-1.9-.3l-1.4.2-3.2-.2c-2.1.2-4.1-.2-6.2-.2A45.1,45.1,0,0,1-58.2,6a24.1,24.1,0,0,0-3.8.1,16.1,16.1,0,0,0-3.1,0l-4.4.8c-1.3.3-2.6.5-3.8.9s-2.2.7-3.3,1.2a36.1,36.1,0,0,1-4.6,1.7,5.8,5.8,0,0,1-2.2.8,18.4,18.4,0,0,0-2.5.9l-2.9,1.1L-92,14.8c-1.5.5-2.8,1.3-4.2,1.8s-4.6,2.2-7,3.3-3.6,1.8-5.4,2.8-2.7,1.8-4.2,2.7a15.7,15.7,0,0,0-2.6,1.9l-2.8,2.4-3.8,3a30,30,0,0,0-3.2,3,19,19,0,0,0-2.1,1.9,22.1,22.1,0,0,0-2.9,3.2l-.3.3c-.8.5-1.1,1.5-2.1,1.7s-.1.1-.1.2-.8,1-1.2,1.5c-1.9,2-4.2,3.5-6,5.7s-1.4,1.5-2.1,2.4a29.2,29.2,0,0,0-2.1,2.8c-.4.7-.5.9.2,1.2s2.7,1.9,4.2,2.7.2.7.6.8,3.1,1.8,4.7,2.7,2.2,1.7,3.4,2.5,1.3,1.2,2.2,1.7,1.5,1.4,2.4,2a18.3,18.3,0,0,1,3.1,2.4c1,1.1,2.4,1.7,3.3,3s1,.6,1.1,1.2.9,1,1.4,1.5.3,0,.4-.2a8.2,8.2,0,0,0,1.6-2.5c.2-.8,1-1.1,1.2-1.7s.3-.7.6-.8a3.8,3.8,0,0,0,1.6-1.1,23.1,23.1,0,0,1,5.6-3.8c.5-.3.6-.8.2-1a17.9,17.9,0,0,1-1.4-1.3,13.3,13.3,0,0,1-2.5-4.1c-.4-1-.9-1.9-1.2-2.9a26.8,26.8,0,0,0-1.2-3,8.9,8.9,0,0,1-.6-2A18.8,18.8,0,0,1-114.1,47ZM128.3,14.8h-.5a6,6,0,0,0-1.9.6,6,6,0,0,0-3.2,1.5c-.1.2-.2.3-.4.3a9.4,9.4,0,0,1-2.8,1.5l-.4.3c-.5.6-1.2,1-1.7,1.5a7.6,7.6,0,0,0-1.4,1.1c-.9,1.2-2.3,2-3.3,3.1a4.1,4.1,0,0,0-1,1.3c-.1.1-.1.3-.2.3s-1.4,2.2-2.2,3.2-.6,2.2-1.3,3.2a23.9,23.9,0,0,1-1.2,2.2c-.7.8-.8,1.9-.1,2.4a13.7,13.7,0,0,1,2.3,2.5c.4.5.6,1.1,1,1.6s.5.5.5.9.4,3.2.2,4.8a24.5,24.5,0,0,1-.2,2.7c-.4,1.2-.3,2.6-1,3.8s-.5,2.2-1.1,3.2-.5.4-.5.6c0,1.8-1.3,2.9-2.3,4.1a16.1,16.1,0,0,1-2.2,2.3c-1.5,1.2-2.7,2.7-4.2,3.9L97,69c-1,.6-1.9,1.5-3.3,1.5a.2.2,0,0,0-.2.2c0,.6-.6.7-1,.9a37.6,37.6,0,0,1-4.6,2c-.6.2-1.8-.2-1.7,1.2s-.1.1-.1.2a5.5,5.5,0,0,0-1.8,2.2,36.2,36.2,0,0,0-2.2,3.2,12.2,12.2,0,0,0-1.7,2.9c-.2.7-.1.8.6.9a10.1,10.1,0,0,0,3-.2l5-.4a29.6,29.6,0,0,0,3.1-.3,15.6,15.6,0,0,0,3.1-.2c2.2-.5,4.4-.8,6.6-1.4.4-.2,1.1-.3,1.3-.7s.9-1,1.2-1.5a36.9,36.9,0,0,1,2.5-3.4,21.3,21.3,0,0,0,1.6-2.5c.6-1.2,1.4-2.3,2-3.4a46.4,46.4,0,0,0,2.3-4.4,7.6,7.6,0,0,1,2.5-4,12.9,12.9,0,0,0,1.6-1.8l1.9-2.9,2.1-2.6c.6-1,1.7-1.6,2.4-2.6a7.5,7.5,0,0,1,1.2-1.4c.7-.6,1.1-1.5,1.8-2.1l1.2-1.4c1.2-1.3,2.5-2.5,3.6-3.8s1.8-1.7,2.5-2.7a2.4,2.4,0,0,1,1-1,11.2,11.2,0,0,0,2.4-1.9,7.4,7.4,0,0,0,2-2.3l.3-.2c.7-.6,1.3-1.4,2-2l2.1-1.7,3.7-2.5a6,6,0,0,1,2.3-1c.9-.1,1-.5.4-1.2l-2.3-2.4c-1.1-1.2-1.9-2.6-3-3.8s-2.4-3-3.9-4.2a6.4,6.4,0,0,1-1-1.3c-.5-1-.5-1-1.6-.9H136c-.5.1-1.1.4-1.7-.1h-.1l-2.3-.2c-.5-.1-1.1-.2-1.3.6a.7.7,0,0,1-1.1.4ZM-41.5,30.7c.1-1-.2-1.5-.9-1.4a10.2,10.2,0,0,1-3.5-.1,12.2,12.2,0,0,0-2.7.1c-2.2.1-4.3-.5-6.4-.6s-1.5.4-2.3.4v.2c-.5.5-.3,1.1-.4,1.6a10.7,10.7,0,0,0-.3,2.5c.3,2.3.3,4.6.7,6.9s.1,2.7.4,4a.4.4,0,0,1-.3.6,3.6,3.6,0,0,1-2.5.2h-1.9c-1.1-.1-2.3.2-3.4,0s-1.3-.3-1.1-1.5v-.3a12.5,12.5,0,0,1,0-5.1,20.5,20.5,0,0,0-.1-3.5,8.6,8.6,0,0,1,.5-3.2c.3-.7.1-1.1-.7-1.2a16.6,16.6,0,0,1-2.1-.6,9,9,0,0,0-4.6-.8h-1.2a27.4,27.4,0,0,0-7,.9c-.3.1-.5.2-.4.6a21.7,21.7,0,0,1,.1,3.6c-.1,1.6-.1,3.2-.2,4.8s-.1,2.7-.1,4-.3.8-.2,1.3a36.4,36.4,0,0,1,.1,6.6c0,1.6-.2,3.3-.3,4.9v2.9a12.1,12.1,0,0,1,.1,1.9,11.3,11.3,0,0,1,.1,2.6,8.3,8.3,0,0,0,.3,2.2,5,5,0,0,1,.1,2.7c-.2,1,.2,1.6.9,1.6h3.3a54.2,54.2,0,0,0,5.7,0H-70a12.4,12.4,0,0,1,2.7.3c.3.1.8.1.8-.2s.4-1.1.2-1.7a12.2,12.2,0,0,1-.2-3.3c.1-1.3.2-2.6.2-3.8s-.4-1.5-.2-2.4a1.9,1.9,0,0,1,2.6-1.6,3.3,3.3,0,0,0,1.4.4c1.6.3,3.3.1,5,.3s.9.3.9.8.1,1-.1,1.5A2.7,2.7,0,0,0-57,61c.2,1.5.3,3,.4,4.5s-.2,2.2-.2,3.4,0,1.6,1.4,1.6h2.8c1.6,0,3.3.3,4.9.4h4.4c1.1.1,1.4-.3,1.5-1.3a2.8,2.8,0,0,0,.1-.9,6.8,6.8,0,0,1-.2-1.4,7.8,7.8,0,0,1,.2-1.4c0-2.2-.2-4.5,0-6.8a22.6,22.6,0,0,1,0-2.6,20.9,20.9,0,0,0,.1-5.6,23.6,23.6,0,0,1,0-4.6c.2-1.7.2-3.3.3-5a24.1,24.1,0,0,1,.1-3.8,15.1,15.1,0,0,0,.1-3C-41.3,33.3-41.4,32-41.5,30.7ZM57.3,48.6c.1-.2-.1-.7,0-1.3a22.7,22.7,0,0,0,.6-2.5,9.3,9.3,0,0,1,1.4-3.6,5.1,5.1,0,0,1,1.6-2,8,8,0,0,1,5-1.5c.8.1,1.7-.1,2.4.6l.6.4A5.7,5.7,0,0,1,71,41.2c.2.3.3.7.5,1s.7,1.2.6,1.9.6.9,1.3.8a9.5,9.5,0,0,1,3.3-.5,6.5,6.5,0,0,0,2-.2c.4-.1.4-.2.4-.6s-.8-2.6-1-4a5.3,5.3,0,0,0-.5-1.5,36.1,36.1,0,0,0-3-2.5c-.7-.6-1.6-.8-2.1-1.5a5.2,5.2,0,0,0-1.8-1.2c-.5-.2-.7-.7-1.3-.8A22.6,22.6,0,0,1,65.7,31l-3.1-.8a5.1,5.1,0,0,0-2.2-.3c-.4.2-.8-.3-1.3-.1a10.2,10.2,0,0,1-3.5-.1,21.9,21.9,0,0,0-3.6-.3l-1.8.3a23,23,0,0,0-3.5,1l-2,.8a2.7,2.7,0,0,0-1.5,2.1c.1.9-.4,1.5-1.2,1.4s-.5,0-.6.4-.1.2-.2.3-1,2.3-1.4,3.4,0,1.9-.5,2.8a2.3,2.3,0,0,0-.4,1.4c.2,1.2-.2,2.2-.1,3.3s0,2.5.1,3.8.3,1.9.6,2.9a19.8,19.8,0,0,1,.3,3.5,26.3,26.3,0,0,0,.6,3.9c.2.6.7.9.8,1.6a1.4,1.4,0,0,0,1.4,1.2q.4.2.6.9c0,.4-.1.9.2,1.2A8.2,8.2,0,0,0,46,67l1.6.4a21.6,21.6,0,0,0,4.1,1.3c.6,0,1.1.5,1.6.5a49.2,49.2,0,0,1,6.7.4,28.1,28.1,0,0,0,4.1-.1c1.1,0,2.2-.5,3.4-.5a5.4,5.4,0,0,0,2.2-.5,20.2,20.2,0,0,1,2.3-.7,10.2,10.2,0,0,0,3-.8,5.8,5.8,0,0,1,2.5-.9l.6-.4c.7-1.2,1.6-2.2,2.3-3.4a5.3,5.3,0,0,0,.8-2.2c-.1-1.3.4-2.6.2-3.9s-.1-1.1-1.1-1.2l-3.6-.4A26.1,26.1,0,0,1,74,54c-.2,0-.5-.1-.5.2s-.2.9-.1,1.3a3.2,3.2,0,0,1-1.2,2.9c-1.1.9-2,2-3.5,2.4A6.2,6.2,0,0,1,66,61l-3.7-1a5.2,5.2,0,0,1-2.7-1.9,11.1,11.1,0,0,1-1.2-3,18,18,0,0,1-.8-2.1A10.4,10.4,0,0,1,57.3,48.6ZM-56.9,87.9c.6.2,1.1-.1,1.4-.9a4.5,4.5,0,0,1,.6-1.2,13.7,13.7,0,0,1,1.7-1.7c.4-.6,1.2-.8,1.6-1.3a15.6,15.6,0,0,1,2.8-2.3,36.2,36.2,0,0,1,3.2-2.2c.2-.2.6-.4.5-.7s-.4,0-.7-.1h0c-1.4-.2-2.8,0-4.2-.1s-2.5,0-3.8,0a21.9,21.9,0,0,1-3.6-.3c-.7-.1-1.4.3-2.1,0s-1.6-.2-2.3-.2a22.5,22.5,0,0,0-2.6,0c-1,.1-2-.3-3-.3-3-.1-5.9-.5-8.9-.8-1.5-.1-2.9-.3-4.4-.3s-3.3-.1-4.9-.3a44.8,44.8,0,0,1-7.4-2c-1.5-.4-2.8-1.2-4.2-1.7l-2.3-1.2a16.4,16.4,0,0,0-2.2-1.4c-.7-.3-1.5-.5-1.9-1.2s-.6-.2-.9.1a2,2,0,0,1-.6.7,18.6,18.6,0,0,0-5.2,3.6c-1,.9-2.3,1.5-2.7,2.8v.2c-.3.5-.6.9-.9,1.5s-.3,1.6-1.2,1.8-.3.5-.2.8l.3.2,4.5,2.8a25.7,25.7,0,0,0,5.2,2.1c2.3.9,4.9,1.1,7.3,1.6a34.3,34.3,0,0,0,3.4.6,19.7,19.7,0,0,0,4.2.1h7.7c3.2,0,6.4,0,9.6.3H-68l4.8.2A40.8,40.8,0,0,0-56.9,87.9ZM167.8,45.5a.4.4,0,0,0-.1-.3,42.7,42.7,0,0,0-3.8-3.6,23.7,23.7,0,0,1-3.4-2.9c-.8-.9-1.7-1.6-2.5-2.4l-1.9-2c-.6-.7-1.1-1.5-1.7-2.3l-2.5-2.6c-.3-.3-.5-.2-.8-.2a13,13,0,0,0-3.7,1.9c-1.5,1-2.9,2.1-4.3,3.2l-2.7,2.6c-.5.4-.6,1.1-1.1,1.4a5.6,5.6,0,0,0-1.8,1.6c-.7.9-2.1,1.1-2.4,2.3s-1.3,1.3-1.9,1.9a16.7,16.7,0,0,0-2.3,2.3c-.4.5-.7,1.3-1.3,1.6s-1.3,1.5-2.1,2.1a38.8,38.8,0,0,0-2.6,3.1l-4,4.7a9.2,9.2,0,0,0-1.9,2.8,9.1,9.1,0,0,1-2,2.4,6.2,6.2,0,0,0-1.7,2.6,23.1,23.1,0,0,1-2.1,4.5c-.3.3-.3.8-.6,1.1a17.3,17.3,0,0,0-1.9,2.8,13.4,13.4,0,0,1-1.3,2.3.6.6,0,0,0,.6-.1c.5-.2.8-.7,1.2-1.1a19.2,19.2,0,0,1,1.7-1.3c1-1,1.7-2.3,2.8-3.2a39.7,39.7,0,0,1,2.9-2.9l2.1-1.8c1.4-1,2.5-2.3,3.9-3.3s2.4-2.4,3.8-3.4l2.7-1.9a11.3,11.3,0,0,0,1.8-1.2c.7-.6,1.6-1,2.4-1.6a5.9,5.9,0,0,1,1.4-.6l1.7-1c1.8-.9,3.4-2.2,5.2-3.1a31.7,31.7,0,0,1,3.8-1.7l5-1.4a23.7,23.7,0,0,1,3.6-.9,30.3,30.3,0,0,1,3.2-.6,21.9,21.9,0,0,1,3.6-.3Zm-47.1-30a13.6,13.6,0,0,0-2.1.2,17.2,17.2,0,0,0-3.2.2c-1.3.2-2.6,0-3.9.2l-3,.3c-1.2.2-2.4.1-3.6.2H99.8a2.8,2.8,0,0,1-1.8-.3h-.3a6,6,0,0,1-2.3-.1l-3.1-.4a16.7,16.7,0,0,1-3.2-.2,20.1,20.1,0,0,0-4.2-.5c-1.3-.1-2.5.5-3.8.8l-1.7.4-2.5,1.1A10.5,10.5,0,0,0,74,19.1a23.7,23.7,0,0,0-2.9,3.4,18.3,18.3,0,0,0-1.3,1.6,6.5,6.5,0,0,0-1.3,1.6c-.1.2-.2.4.1.4l1.8.2a21.6,21.6,0,0,1,3.6,0,23.1,23.1,0,0,1,5.2.6c1.9.4,3.7.6,5.5,1.1a6.9,6.9,0,0,1,1.7.5,2.4,2.4,0,0,0,1.4.3,12,12,0,0,0,2,.3c.7,0,1.2.5,1.8.6a21.7,21.7,0,0,1,3.6,1.2l4.8,1.9a10.6,10.6,0,0,1,3.4,1.6c.4.4.9.3,1.2-.3l.4-.6a7.8,7.8,0,0,0,1.1-2,7.7,7.7,0,0,1,1-2.9l2.7-3.9a17.2,17.2,0,0,1,2.7-2.7c1.3-1.2,2.7-2.3,4-3.6a4.1,4.1,0,0,1,2-1.4A3.7,3.7,0,0,0,120.7,15.5ZM170,13.1c-1.3,0-1.4.1-.9,1.3a5.9,5.9,0,0,0,1.3,1.9c1,1,1.6,2.3,2.8,3.1a37.4,37.4,0,0,0,4.2,2.7l1.5.6a5.4,5.4,0,0,0,2.1.8c2,.3,3.8,1.3,5.8,1.6l2.9.8a7.9,7.9,0,0,1,2.2.6,15.2,15.2,0,0,0,3.6,1.2,7.5,7.5,0,0,1,2.6.5c.9.4,1.9.5,2.8,1s1.8.5,2.4,1.4h.3a1.9,1.9,0,0,1,1,.5,13.9,13.9,0,0,0,1.9,1.5l2.6,2c.5.5.8,1.1,1.3,1.3a9.8,9.8,0,0,1,2.6,1.7c.3.2.4.2.6-.1a6.3,6.3,0,0,0,.4-3c-.1-1.2-.1-2.3-.1-3.5a23.4,23.4,0,0,0-.3-3.8,7.4,7.4,0,0,0-.7-2.1c-1-1.1-1.6-2.5-2.6-3.6s-.9-.6-1.2-1.1a5,5,0,0,0-2.2-1.6c-1.1-.6-2.3-1-3.3-1.6a13,13,0,0,0-4.5-2,45.8,45.8,0,0,1-5.6-1.4,45.4,45.4,0,0,0-5.1-.9,57.3,57.3,0,0,0-5.8-.7,12.2,12.2,0,0,0-3.3.1,25.8,25.8,0,0,1-4.8.3h-2A21.7,21.7,0,0,1,170,13.1Zm-23.9-.5c1.4.8,2.8,1.2,4.2,1.9l3.5,1.9,3.8,2,1.6.7c1,.6,2.2,1,3.2,1.5l3.2,1.6c1.3.8,2.6,1.6,4,2.3l2.9,1.4,4,2a18.2,18.2,0,0,1,3.1,1.6l4.3,2.5a29.1,29.1,0,0,0,5.1,2.2,53.1,53.1,0,0,1,5.5,2.3l3.8,1.3a10.9,10.9,0,0,1,3.9,1.9,2.8,2.8,0,0,0,1.5.8,24.6,24.6,0,0,1,4.8,1.6c1.1.5,2.1,0,3.1-.1l.2-.2a2.4,2.4,0,0,0-.5-2.4L209,37.7c-.9-.5-1.5-1.5-2.3-2.1a36,36,0,0,0-4-2.8,14.3,14.3,0,0,0-5.3-2.5c-1.9-.5-3.9-.6-5.7-1.5s-3.8-1-5.7-1.7-3.3-.9-4.9-1.4l-4-1.1c-.5-.2-.8-.7-1.3-.9a6.9,6.9,0,0,1-2.5-1.4c-.6-.5-1.3-.8-1.6-1.6h-.2c-.8.2-1.2-.6-1.4-.9s-1.7-1.9-2.5-3a6.1,6.1,0,0,1-1.2-3.4c-.1-.4-.2-.6-.6-.5s-2,.1-2.9.3l-3.2.2-2-.3a40.1,40.1,0,0,0-4.9-.1,24.6,24.6,0,0,1-5.4-.4A2,2,0,0,0,146.1,12.6Zm-4,.6c.4,1.7,1.5,2.6,2.4,3.7s1.3,1.1,1.3,2.2.7.6.9.9l1.8,2.1a46.9,46.9,0,0,1,4.2,4.7,1.6,1.6,0,0,0,1.6.8h2.9c1.5,0,3-.5,4.5-.2a11.5,11.5,0,0,1,2.8.6l1.5.7a8.4,8.4,0,0,1,2.9,1.3c.3.2.4.7.9.9a6.6,6.6,0,0,1,2.4,1.4c1.2.9,2.5,1.9,3.7,3a8.1,8.1,0,0,1,1.8,1.9l.9.8c1,.8,2.1,1.4,3.1,2.3a26.9,26.9,0,0,0,5.3,2.8,44,44,0,0,0,6.2,1.8l3.9.8a62.6,62.6,0,0,0,7.5.2,11.6,11.6,0,0,0,2.8-1c.2-.1.4-.2.4-.4a.4.4,0,0,0-.6-.3h-.7a4.6,4.6,0,0,0-1.6-.7,11.1,11.1,0,0,1-4.8-2.2,5.1,5.1,0,0,0-1.8-.9l-1.9-.5a29.9,29.9,0,0,1-3.8-1.5L190.1,37l-2.6-1.1-2.9-1.1-1.9-1a6.1,6.1,0,0,1-2.3-1.5.5.5,0,0,0-.5-.3,3.8,3.8,0,0,1-1.7-.8,25.3,25.3,0,0,0-3.6-2l-4.8-2.1a24.9,24.9,0,0,1-2.8-1.5,34.8,34.8,0,0,0-3.6-2.2,42.8,42.8,0,0,0-4.4-2,47.1,47.1,0,0,1-4.5-2.2L150.2,17l-4.7-2.4C144.5,14.1,143.3,13.8,142.1,13.2Z" transform="translate(180.5 4.8)"/><path class="b" d="M-138.4,63c.1,0,.1,0,.1.1h-.1c-.1-.1-.1-.1,0-.2Z" transform="translate(180.5 4.8)"/><path class="a" d="M-4,24.5a22.6,22.6,0,0,1,3.7-.1c.9.1,1.9-.1,2.9-.1l7.2.3a25.8,25.8,0,0,1,4.8.3c1.5.2,3,.1,4.4.3l6.4.5c2.2.1,4.5.5,6.7.5s3,.2,4.5.3,3-.1,4.4.3,2.8,0,4.1.4h.7c.2-.2.4-.4.5.1h.3a3.3,3.3,0,0,1,2.2.3v.3l-2.3.8-2.6,1.1c-1.5.6-2.4,1.9-3.7,2.7s-.5.5-.6.8a30.5,30.5,0,0,1-1.3,3.2c-.9,1.9-.8,4-1.5,5.8a13,13,0,0,0-.4,4.8,15.5,15.5,0,0,0,.1,4.3,21,21,0,0,1,.7,5.6,21.4,21.4,0,0,0,.6,3.5c0,.4.6.6.4,1.1s.1.9.4,1.3,0,.8.1,1a3.1,3.1,0,0,0,.8,1.5,2.9,2.9,0,0,1,1,1.2c.1.1.1.2.2.2s2.9,2.2,4.9,2.4a7.7,7.7,0,0,1,2.9,1,14.6,14.6,0,0,0,3,.7,15.4,15.4,0,0,0,3,.4c1.9.1,3.7.5,5.6.5a47.4,47.4,0,0,0,6.5-.5,12.3,12.3,0,0,0,3.2-.7,3.1,3.1,0,0,1,1.9-.4H72a2.4,2.4,0,0,1,2.1-.6,2.8,2.8,0,0,0,1.3-.3,13.3,13.3,0,0,1,2.8-1,1.5,1.5,0,0,0,1.3-1c0-.2.1-.4.3-.4s1.1-.9,1.9-.9.2-.6.2-1,.5-2.1,1.3-3a2.4,2.4,0,0,0,.5-1.4,20.6,20.6,0,0,1,.3-2.6,9.7,9.7,0,0,0-.2-3.8c-.1-.3-.3-.6-.6-.6a22,22,0,0,0-3.6-.4,15.5,15.5,0,0,1-2.9-.4,7.3,7.3,0,0,1-1.9-.7c-.3-.2-.8-.1-1.3-.2s-.6.1-.7-.3-.2-.1-.3-.1-1.9,1-1.7,2.5a16.1,16.1,0,0,1-.1,3.1c0,.2-.1.3-.3.4a11.2,11.2,0,0,1-2.2,1.6,2,2,0,0,1-1.7,0,11.4,11.4,0,0,1-4-1.5A3.2,3.2,0,0,1,61.1,55a10.8,10.8,0,0,0-.8-1.9,10.2,10.2,0,0,1-.5-3.9,19.7,19.7,0,0,1,.6-4.8,10.1,10.1,0,0,1,1.3-3,4.1,4.1,0,0,1,3.1-1.7,2.4,2.4,0,0,1,2.2.4c.6.6,1.5,1.1,1.7,2.1s.8,1.3.8,2.1.2.8.1,1.2a.9.9,0,0,0,.7,1h1.1a26.6,26.6,0,0,0,6.3-.3c.4-.1.9.2,1.3.1s.8-.4,1.3-.4,1.9-.3,1.8-2.3-.6-.9-.7-1.5a11.9,11.9,0,0,0-1.1-4.1A3.8,3.8,0,0,0,79,35.9l-1.8-1.4c-1-.9-2.3-1.4-3.2-2.4a2.3,2.3,0,0,0-1-.4c-.6-.1-.8-.8-1.4-1.1L69,29.8a35,35,0,0,0-4.6-1.4,7.5,7.5,0,0,1,2.1-.2,58.6,58.6,0,0,0,5.9.1c.6,0,1.1-.2,1.6.3s.4-.2.6-.2a38.3,38.3,0,0,1,5.8.7,7.6,7.6,0,0,0,1.6.3,7.3,7.3,0,0,1,2,.5c.8.3,1.8.3,2.6.6l2.9.7,3.2.9c1.2.6,2.4,1,3.6,1.5l3.8,1.5a16.7,16.7,0,0,1,2.3,1.2c.1.1.2.2.2.3s1.1.9,1.2,1.7h.3c.9-.2,1.3.6,1.9,1.1s1.2.8,1.4,1.4,1.4,1.6,1.4,2.8a29.9,29.9,0,0,0,.4,4.1,3.9,3.9,0,0,1-.2,1.5,9.9,9.9,0,0,0-.2,1.7,5.8,5.8,0,0,1-.4,1.8c0,.4-.5.7-.6,1.2a13.4,13.4,0,0,1-.7,1.8,13.6,13.6,0,0,1-2.6,4.5c-.9,1-1.9,2.1-3,3.1l-1.6,1.3c-.6.4-1,1.1-1.6,1.5l-5.8,3.2-2.4,1.3a20.7,20.7,0,0,1-3.3,1l-3.2.7c-1.1.2-2.1.6-3.2.7a5.6,5.6,0,0,0-1.8.7,11.4,11.4,0,0,1-2.5.6c-.3.2-.5-.1-.5-.4s-.2-.4-.6-.5c-2.3-.1-4.5-.4-6.8-.3a31.8,31.8,0,0,1-6.2-.3c-1.4-.2-2.8,0-4.2-.1H53c-3.1-.2-6.1-.5-9.2-.4s-3.6,0-5.4.2a10.3,10.3,0,0,1-1.7-.1c-.2,0-.3-.2-.5-.3S35,71,34.1,71.6a3.2,3.2,0,0,1-2.3.7l-5-.2a45.6,45.6,0,0,1-6.4.1c-2.2-.2-4.4.2-6.5,0a12,12,0,0,0-1.9,0V72l.2-.2a18.6,18.6,0,0,0,3.4-.4,12.1,12.1,0,0,0,3.7-1.1c.4-.2.7-.6,1.1-.7A4.5,4.5,0,0,0,23,68.2c.5-.7,1.5-1,1.8-1.9a1.8,1.8,0,0,0,.2-1.4c-.2-.5-.7-.5-1.1-.3s-.4-.2-.5-.4-.1-.4-.2-.6-1.1-2.2-1.5-3.3-1.1-1.6-1.4-2.6a.1.1,0,0,1-.1-.1l-3-1.7-3.4-1.7a11.7,11.7,0,0,0-2.4-.9,10.6,10.6,0,0,1-1.9-.6,8.5,8.5,0,0,0-2.2-.9c-1.7-.7-3.7-.7-5.2-2.1s-2.4-1.4-3.5-2.2a28,28,0,0,1-4.5-3.9,2,2,0,0,1-.6-1.4,7,7,0,0,1,.3-3.8,2.8,2.8,0,0,1,2.2-2h.3a4.8,4.8,0,0,1,4.2-.1H1a4.9,4.9,0,0,1,2.1.4,36.2,36.2,0,0,1,4.3,2.4l4.1,2.6c.1.1.3.3.2.4s.9.7.8,1.3a.1.1,0,0,0,.1.1c.7,0,1.2.4,1.9.2a4.3,4.3,0,0,1,2.5-.3c.4,0,.8.2,1.2.1a20.6,20.6,0,0,1,2.6-.3l3.3-.2a.9.9,0,0,0,.9-.8c0-1.1-.2-2.1-.2-3.1a4.4,4.4,0,0,0-.7-2.2,9.5,9.5,0,0,0-1.9-2.7,5.8,5.8,0,0,1-1.6-2.1,1.3,1.3,0,0,0-1.2-.3,1.4,1.4,0,0,1-1.6-.2c-.9-.8-2.2-1-3.3-1.5s-2-.8-3-1.4-3.6-.9-5.4-1.5a2.4,2.4,0,0,1-1.3-.5H4.5l-4.6-.9c-.4-.1-1,.1-1.4-.2s-1.3-.4-1.9-.6H-4Z" transform="translate(180.5 4.8)"/><path class="c" d="M-59.2,64.9a1.3,1.3,0,0,0,.1.6c-.1.1-.2.3-.1.4v.4c-.1.2-.1.3,0,.4a2.8,2.8,0,0,0-.1,1.3c-.2.1-.1.3-.1.4a2.2,2.2,0,0,0,0,.8c0,.3-.1.6.1.9V71c-.1,1,.4,1.5,1.4,1.5h.8a5.3,5.3,0,0,0,2.8-.3h.4a32.9,32.9,0,0,1,5.4.5,5.5,5.5,0,0,0,2.2-.1,3,3,0,0,1,1.3.1h2.4a3.9,3.9,0,0,1,1.5.1,1.4,1.4,0,0,0,2-1.4c-.1-1.1,0-2.2-.2-3.2s0-.8-.1-1.2.5-1.2-.1-1.8a3.4,3.4,0,0,0,0-2.6c-.2-.7.2-1.2.2-1.8V57a48.5,48.5,0,0,0,.2-6.6c-.1-1-.2-2-.2-3a11.1,11.1,0,0,0,.2-1.9,41,41,0,0,1,.2-4.9,30.5,30.5,0,0,0,.1-4.3c0-1.9-.1-3.8-.2-5.8s-.3-1.2.3-1.8-.1-1-.6-1.1a1.1,1.1,0,0,0-.8-.1,1.6,1.6,0,0,1-1.5-.2c-.4-.3-.8.1-1.3.1a21.7,21.7,0,0,1-3.6-.1c-.2-.1-.4,0-.7.1h-.5c-1-.6-2.1-.1-3.2-.4a15.5,15.5,0,0,0-3.1-.4,11.7,11.7,0,0,0-3.2.2h-.8c-.9-.3-1.5.5-2.2.9a.4.4,0,0,0-.2.5c.5.9,0,1.8-.1,2.7a14.3,14.3,0,0,0-.2,4.1,28.4,28.4,0,0,1,.6,5v2.3c0,.3,0,.3-.3.3h-2.6c-.6.1-.9-.2-.9-.8a16.2,16.2,0,0,1,.1-4.4,9.2,9.2,0,0,0-.1-3.3c-.2-.8.3-1.5.3-2.2s.5-.8.5-1.1a5.9,5.9,0,0,0,.2-1.4A1.2,1.2,0,0,0-64,28.4c-1.1-.2-2.2-.3-3.3-.6a4.4,4.4,0,0,1-1.6-.6,2,2,0,0,0-1.5-.1.8.8,0,0,1-.8-.3c.3-.3.8-.2,1.1-.3l4.7-.4c2.6,0,5.3-.3,7.9-.4h3.6c.2.1.5-.1.7-.1h2.8c2.9-.1,5.9.1,8.8-.2l7.7-.7,9.4-.4c.5,0,.9-.3,1.4-.2a56.1,56.1,0,0,0,5.8.1h2a20.9,20.9,0,0,0,2.5,0h1.6c.3.2.6.5,1,.1s1.1.2,1.7.1.2.1.3-.1a7.6,7.6,0,0,0,1.5.1c.2.4-.4.3-.4.6h-.5a5,5,0,0,0-2.9.5h-.3c-.2-.2-.4-.3-.5,0a4.6,4.6,0,0,1-1.9.8A7.1,7.1,0,0,0-17,28.9a14.3,14.3,0,0,0-3.2,4.4c-.4.7-.3.9.4,1.4s.5,0,.3.4-.3,1.4-.6,2.2-.4.5-.4,1a15.1,15.1,0,0,0,.2,3.7A8.9,8.9,0,0,0-19,45.4a14.8,14.8,0,0,0,2.8,3.3,9.6,9.6,0,0,0,2.5,2l3.3,1.5c1.2.5,2.3,1.3,3.5,1.8A6.2,6.2,0,0,1-5,55.2a10.1,10.1,0,0,0,1.6,1.3c1.5,1,2.4,2.5,3.7,3.7s.5.9.9,1.3a3.2,3.2,0,0,1,.4,3.8c0,.1-.1.1-.2.1-1.7,0-3.4.5-5.1-.1a27.6,27.6,0,0,1-4.7-2,8.8,8.8,0,0,1-4-5.1l-1-2.8a.7.7,0,0,0-.9-.4h-1.6c-1.2-.1-2.5-.3-3.8-.3a12.2,12.2,0,0,1-3.3,0c-1.4-.4-2.3.6-1.9,2s.3,2.5.9,3.7.3,2.3,1.3,3.1a4.2,4.2,0,0,1,1.1,1.8,1,1,0,0,0,.4.5A20,20,0,0,1-19.3,68a9,9,0,0,0,2.6,1.7A17.4,17.4,0,0,0-12.1,71c1,.1,1.9.5,2.9.6h5.4a18.2,18.2,0,0,1,3.3.1c1.4.1,2.9,0,4.3,0l5,.2v.4a16.2,16.2,0,0,1-3.1.2L1.6,73l-3.5.3-4.8.7-5.6.5-5.7.2-5.8.2-4.3.3a19.7,19.7,0,0,1-4.2.1h-3.6c-3.5.1-7,0-10.5.2h-7.4l-5.9-.2c-2.5-.1-4.9-.5-7.3-.6a34.2,34.2,0,0,1-4.5-.4l-5.1-.4c-2.4-.3-4.7-.3-7.1-.5a26.7,26.7,0,0,1-4.8-.8c-1.8-.6-3.7-1.1-5.5-1.8a40.2,40.2,0,0,1-4.7-2.2,42.3,42.3,0,0,1-4-2.4l-2.3-1.7c-.7-.4-1.1-1-1.8-1.4l-.3-.3c-.5-1.4-1.4-2.7-2-4.1a14.5,14.5,0,0,1-1.1-2.9c-.3-1.2-1.2-2.2-1.4-3.5a5.3,5.3,0,0,0-.8-2.4.4.4,0,0,1-.1-.3c.5-2.4.1-4.9,1.5-7.1a15.4,15.4,0,0,1,1.9-2.8c1.3-1.2,2.8-2.1,4.2-3.2l2-1.4,2.5-1.3,3.2-1.6a32.6,32.6,0,0,1,4.4-1.5,8.1,8.1,0,0,0,2.2-.7c.6-.3,1.4-.1,2.1-.3a16.8,16.8,0,0,0,2.4-.6.8.8,0,0,1,.8.1,2.7,2.7,0,0,0,1.2.9v.2c-.5.3.1.9-.3,1.3s0,.2,0,.3.4.9,0,1.3a.2.2,0,0,0,0,.4.4.4,0,0,1,.2.4c-.6,1.1-.1,2.3-.3,3.5a6.5,6.5,0,0,0-.2,2,19.7,19.7,0,0,1-.1,4.2c-.1,1.6.3,3.1.1,4.7s.1,3.6-.2,5.4a27.4,27.4,0,0,0-.1,6.4c.1,1.4.1,2.7.2,4a6.5,6.5,0,0,0,.5,2c.1.3,0,.6.1,1s-.1.4-.1.7.4,1.3-.6,1.6-.4.6.1.8.8.1.4.6.1.2.2.3a1.7,1.7,0,0,0,2.4-.1.4.4,0,0,1,.4-.2h1.6l4.1.2h4.4c1.2,0,2.3.4,3.4.5h1.4c.8-.1,1.4.3,2.3.1s.8-.4.8-1a15.4,15.4,0,0,1-.4-3c0-1-.2-1.9-.2-2.9a36.2,36.2,0,0,0,.2-4.7c0-.1,0-.1-.1-.2s-.3-.9.7-.9h3c.7,0,.9.2.8.9a37.3,37.3,0,0,0,.1,4.7h0Z" transform="translate(180.5 4.8)"/><path class="d" d="M-114.1,47a18.8,18.8,0,0,0,.9,5.7,8.9,8.9,0,0,0,.6,2,26.8,26.8,0,0,1,1.2,3c.3,1,.8,1.9,1.2,2.9a13.3,13.3,0,0,0,2.5,4.1,17.9,17.9,0,0,0,1.4,1.3c.4.2.3.7-.2,1a23.1,23.1,0,0,0-5.6,3.8,3.8,3.8,0,0,1-1.6,1.1c-.3.1-.4.5-.6.8s-1,.9-1.2,1.7a8.2,8.2,0,0,1-1.6,2.5c-.1.2-.2.4-.4.2s-1.1-.8-1.4-1.5-.8-.7-1.1-1.2-2.3-1.9-3.3-3a18.3,18.3,0,0,0-3.1-2.4c-.9-.6-1.5-1.5-2.4-2s-1.4-1.2-2.2-1.7-2.2-1.8-3.4-2.5-3-2.1-4.7-2.7-.3-.6-.6-.8-2.7-1.9-4.2-2.7-.6-.5-.2-1.2a29.2,29.2,0,0,1,2.1-2.8c.7-.9,1.5-1.6,2.1-2.4s4.1-3.7,6-5.7c.4-.5,1-.8,1.2-1.5s0-.2.1-.2,1.3-1.2,2.1-1.7l.3-.3a22.1,22.1,0,0,1,2.9-3.2,19,19,0,0,1,2.1-1.9,30,30,0,0,1,3.2-3l3.8-3,2.8-2.4a15.7,15.7,0,0,1,2.6-1.9c1.5-.9,2.8-1.9,4.2-2.7s3.6-2,5.4-2.8,4.6-2.4,7-3.3,2.7-1.3,4.2-1.8l3.2-1.3,2.9-1.1a18.4,18.4,0,0,1,2.5-.9,5.8,5.8,0,0,0,2.2-.8A36.1,36.1,0,0,0-76.6,9c1.1-.5,2.3-.7,3.3-1.2s2.5-.6,3.8-.9l4.4-.8a16.1,16.1,0,0,1,3.1,0A24.1,24.1,0,0,1-58.2,6a45.1,45.1,0,0,0,5.2.1c2.1,0,4.1.4,6.2.2l3.2.2,1.4-.2c.7,0,1.2.3,1.9.3s2.3.1,3.5.1,1.5.3,2.2-.1a3.3,3.3,0,0,1,2.4.1,11,11,0,0,0,1.8.2c.1,0,.3,0,.3.2s-.1.2-.2.3a18.5,18.5,0,0,1-4,1.2,6.9,6.9,0,0,0-1.5.7c-1.5.7-2.9,1.7-4.4,2.3a13.6,13.6,0,0,0-1.7.4,15,15,0,0,0-3.2,1.9l-1.4.7a11.6,11.6,0,0,0-4.1,2.2,9.2,9.2,0,0,0-2.2,1.7c-.2.2-.5.2-.8.3a10.8,10.8,0,0,0-3.2,2.4l-.9.5c-.4.3-.9.7-.9,1.2s-.4.8-.9.8l-3,.2c-2,.2-4-.1-6,.2s-3.8.4-5.7.8a21.1,21.1,0,0,0-2.5.2l-2.9.5-2.3.5-3.1.6c-2.4.4-4.7,1.2-7.1,1.5a22.9,22.9,0,0,1-2.8.8c-1.8.4-3.2,1.4-4.9,2a16.7,16.7,0,0,0-2.3,1.2l-1.8,1a5.3,5.3,0,0,0-2,1.3,8,8,0,0,1-1.9,1.3,16.6,16.6,0,0,0-3.5,3.5,23.9,23.9,0,0,0-2.1,3.4C-114.1,44-114,45.5-114.1,47Z" transform="translate(180.5 4.8)"/><path class="e" d="M138.6,12.1v.8c-.7-.4-1.4-.4-2-.8s-1,.1-1.6-.1-.5.2-.7-.2-.2.1-.3.2-.4.5-.8.1-1.2-.3-1.8-.3a11,11,0,0,0-2.6.2c-1.5.5-3,.3-4.5.8a21.2,21.2,0,0,1-4.4.6l-4.1.4a43.4,43.4,0,0,0-6.3.5c-2.4.4-4.7.2-7.1.6h-1.2l-4.6-.3c-1.3-.1-2.5-.5-3.8-.5l-4.6-.4-2-.3-.5-.2c-.4-.8-1-.5-1.6-.2a3.7,3.7,0,0,1-1.8-.1l-3.9-.4c-.8,0-1.5-.4-2.4-.4a26,26,0,0,0-3.9-.5,28.5,28.5,0,0,1-4.1-.4,47.4,47.4,0,0,1-7.5-.6l-5.1-.6-3.1-.2a18.2,18.2,0,0,1-3.2-.3c-1.9-.1-3.8-.6-5.7-.8a10.5,10.5,0,0,0-2.5-.1,33.5,33.5,0,0,1-7.1-.3H30.5a2.9,2.9,0,0,1-1-.3c-1.2-.4-2.4.2-3.6-.1H24c-2.5.1-5-.4-7.5-.1a47.3,47.3,0,0,1-5.3.1L4.3,7.3C1.9,7.1-.6,7-3,6.6a29.8,29.8,0,0,0-4.2-.4l-4.5-.3h-3l-4.1-.2-5.1-.2c-3.4-.2-6.7-.5-10.1-.6h-6.7a36.5,36.5,0,0,1-4.7-.1c-1.7-.2-3.3-.1-4.9-.3H-63.6l-6.9-.2a48.6,48.6,0,0,0-6.6.3c-2,.2-4,.2-6.1.3a29.1,29.1,0,0,1-5.1.3L-91,4.6h-2.7c-1.6,0-3.1.5-4.6.4a38.4,38.4,0,0,0-4.8,0,32.4,32.4,0,0,0-6.2.5c-1.9.4-3.8.5-5.7.8a.8.8,0,0,0-.7.2c-.5.3-1,0-1.5.2a41.1,41.1,0,0,1-4.7.7l-4,.8c-1.5.2-3,.7-4.5.8a2.9,2.9,0,0,0-.8.4l-3.4.6-4.2.7c-1.5.2-2.8.8-4.2.8h-.3c-1,.5-2,.5-3,.9s-1.9.5-2.8.9l-3.3,1a47.5,47.5,0,0,0-6.3,2.3l-3.7,1.8a4.7,4.7,0,0,1-1.6.4h-.6c-.7.6-1.6.6-2.3,1a.8.8,0,0,1-.9,0c-.2-.2.1-.5.2-.8s.6-.5.8-.8a14.6,14.6,0,0,0,2.1-2.8c.1-.3.4-.3.6-.5l2.2-1.9c.5-.3.8-.9,1.2-1.3a8.2,8.2,0,0,1,2.6-2.3A7,7,0,0,0-156,8.2c.2-.3.7-.3,1-.4l6.7-2.7h1.2c.6,0,1.3-.5,1.7-.3s1.5-.7,2.2-.4.1,0,.1,0,2.7-.5,4-.8a31,31,0,0,1,5-.9L-129,2l6-.7,3.8-.3c1.6-.1,3.1-.1,4.6-.3l3.2-.3c2-.2,4,.1,5.9-.1s2.4.3,3.6.2,2.4.1,3.6.1l4,.2c1.5-.1,3,0,4.4,0a28,28,0,0,1,4.1,0h7.4c2-.1,4,.1,6.1,0a43.3,43.3,0,0,1,6.2.2l1.7-.2H-57c1.6.2,3.2-.5,4.8.1a4,4,0,0,0,1.1,0A16.3,16.3,0,0,1-46.7.9h10.6c1.3.2,2.7-.1,4.1,0s2.8.2,4.3.3,3.1,0,4.6,0h4.8l4.8.2a14.3,14.3,0,0,1,3.6.2h.3c.7-.5,1.4-.1,2.1.1a5.5,5.5,0,0,0,1.8.1,6.7,6.7,0,0,1,2,.1h2l3.2.3c2,.2,4.1.7,6.1.4s2,.4,3,.2,2.7.3,4.1-.1a13.1,13.1,0,0,1,2.8,0,21.6,21.6,0,0,0,4.4-.1,6.9,6.9,0,0,1,2,.1c1.7.2,3.4,0,5,.3l4.5.3a12.1,12.1,0,0,0,3.8,0h.3c1.4.8,3.2.2,4.7.9s1.9.3,2.8-.1a1.1,1.1,0,0,1,1.1,0c.6.3,1.4,0,2.1.1l7.5.6c1.1,0,2.2-.1,3.3,0l3.5.2c2.2,0,4.4.2,6.6.3h1c1.5.1,3.1.3,4.7.3a40.2,40.2,0,0,1,4.9.2c1.7,0,3.4.2,5.1.3l4.6.4,6.4.5,6.6.5a34.4,34.4,0,0,1,4.6.3l6.2.6a23.3,23.3,0,0,0,3.7.4c1.2,0,2.4.5,3.6.6a53.2,53.2,0,0,0,5.6.6,22.8,22.8,0,0,1,5.2.4,7.8,7.8,0,0,0,3.7-.1c.5-.2,1.1.2,1.7.2a4.5,4.5,0,0,0,1.1.3c.5,0,.9.7.8,1.2h0Z" transform="translate(180.5 4.8)"/><path class="d" d="M128.3,14.8h1.2a.7.7,0,0,0,1.1-.4c.2-.8.8-.7,1.3-.6l2.3.2h.1c.6.5,1.2.2,1.7.1h1.9c1.1-.1,1.1-.1,1.6.9a6.4,6.4,0,0,0,1,1.3c1.5,1.2,2.5,2.8,3.9,4.2s1.9,2.6,3,3.8l2.3,2.4c.6.7.5,1.1-.4,1.2a6,6,0,0,0-2.3,1l-3.7,2.5-2.1,1.7c-.7.6-1.3,1.4-2,2l-.3.2a7.4,7.4,0,0,1-2,2.3,11.2,11.2,0,0,1-2.4,1.9,2.4,2.4,0,0,0-1,1c-.7,1-1.7,1.7-2.5,2.7s-2.4,2.5-3.6,3.8l-1.2,1.4c-.7.6-1.1,1.5-1.8,2.1a7.5,7.5,0,0,0-1.2,1.4c-.7,1-1.8,1.6-2.4,2.6l-2.1,2.6L116.8,60a12.9,12.9,0,0,1-1.6,1.8,7.6,7.6,0,0,0-2.5,4,46.4,46.4,0,0,1-2.3,4.4c-.6,1.1-1.4,2.2-2,3.4a21.3,21.3,0,0,1-1.6,2.5,36.9,36.9,0,0,0-2.5,3.4c-.3.5-.8.9-1.2,1.5s-.9.5-1.3.7c-2.2.6-4.4.9-6.6,1.4a15.6,15.6,0,0,1-3.1.2,29.6,29.6,0,0,1-3.1.3L84,84a10.1,10.1,0,0,1-3,.2c-.7-.1-.8-.2-.6-.9a12.2,12.2,0,0,1,1.7-2.9,36.2,36.2,0,0,1,2.2-3.2A5.5,5.5,0,0,1,86.1,75c0-.1.1-.1.1-.2s1.1-1,1.7-1.2a37.6,37.6,0,0,0,4.6-2c.4-.2,1-.3,1-.9a.2.2,0,0,1,.2-.2c1.4,0,2.3-.9,3.3-1.5l2.2-1.2c1.5-1.2,2.7-2.7,4.2-3.9a16.1,16.1,0,0,0,2.2-2.3c1-1.2,2.3-2.3,2.3-4.1,0-.2.4-.4.5-.6s.6-2.2,1.1-3.2.6-2.6,1-3.8a24.5,24.5,0,0,0,.2-2.7c.2-1.6-.4-3.2-.2-4.8s-.4-.6-.5-.9-.6-1.1-1-1.6a13.7,13.7,0,0,0-2.3-2.5c-.7-.5-.6-1.6.1-2.4a23.9,23.9,0,0,0,1.2-2.2c.7-1,.6-2.3,1.3-3.2s1-2.4,2.2-3.2.1-.2.2-.3a4.1,4.1,0,0,1,1-1.3c1-1.1,2.4-1.9,3.3-3.1a7.6,7.6,0,0,1,1.4-1.1c.5-.5,1.2-.9,1.7-1.5l.4-.3a9.4,9.4,0,0,0,2.8-1.5c.2,0,.3-.1.4-.3a6,6,0,0,1,3.2-1.5,6,6,0,0,1,1.9-.6Z" transform="translate(180.5 4.8)"/><path class="f" d="M-41.5,30.7c.1,1.3.2,2.6.4,3.9a15.1,15.1,0,0,1-.1,3,24.1,24.1,0,0,0-.1,3.8c-.1,1.7-.1,3.3-.3,5a23.6,23.6,0,0,0,0,4.6,20.9,20.9,0,0,1-.1,5.6,22.6,22.6,0,0,0,0,2.6c-.2,2.3,0,4.6,0,6.8a7.8,7.8,0,0,0-.2,1.4,6.8,6.8,0,0,0,.2,1.4,2.8,2.8,0,0,1-.1.9c-.1,1-.4,1.4-1.5,1.3h-4.4c-1.6-.1-3.3-.4-4.9-.4h-2.8c-1.4,0-1.5-.2-1.4-1.6s.2-2.3.2-3.4-.2-3-.4-4.5a2.7,2.7,0,0,1,.3-1.2c.2-.5,0-1,.1-1.5s-.3-.8-.9-.8-3.4,0-5-.3a3.3,3.3,0,0,1-1.4-.4,1.9,1.9,0,0,0-2.6,1.6c-.2.9.2,1.6.2,2.4s-.1,2.5-.2,3.8a12.2,12.2,0,0,0,.2,3.3c.2.6-.1,1.1-.2,1.7s-.5.3-.8.2a12.4,12.4,0,0,0-2.7-.3h-1.9a54.2,54.2,0,0,1-5.7,0h-3.3c-.7,0-1.1-.6-.9-1.6a5,5,0,0,0-.1-2.7,8.3,8.3,0,0,1-.3-2.2,11.3,11.3,0,0,0-.1-2.6,12.1,12.1,0,0,0-.1-1.9V55.6c.1-1.6.3-3.3.3-4.9a36.4,36.4,0,0,0-.1-6.6c-.1-.5.2-.9.2-1.3s0-2.7.1-4,.1-3.2.2-4.8a21.7,21.7,0,0,0-.1-3.6c-.1-.4.1-.5.4-.6a27.4,27.4,0,0,1,7-.9h1.2a9,9,0,0,1,4.6.8,16.6,16.6,0,0,0,2.1.6c.8.1,1,.5.7,1.2a8.6,8.6,0,0,0-.5,3.2,20.5,20.5,0,0,1,.1,3.5,12.5,12.5,0,0,0,0,5.1v.3c-.2,1.2-.1,1.3,1.1,1.5s2.3-.1,3.4,0h1.9a3.6,3.6,0,0,0,2.5-.2.4.4,0,0,0,.3-.6c-.3-1.3-.1-2.7-.4-4s-.4-4.6-.7-6.9a10.7,10.7,0,0,1,.3-2.5c.1-.5-.1-1.1.4-1.6v-.2c.8,0,1.4-.5,2.3-.4s4.2.7,6.4.6a12.2,12.2,0,0,1,2.7-.1,10.2,10.2,0,0,0,3.5.1C-41.7,29.2-41.4,29.7-41.5,30.7Z" transform="translate(180.5 4.8)"/><path class="d" d="M-75.4,6.4c-.2.3-.6.3-.9.4L-82.4,9l-3.5,1.4a18.2,18.2,0,0,1-3,1.1c-2.5.8-4.8,1.9-7.2,2.9l-2.3,1c-.8.6-1.8.8-2.6,1.4l-.4.2a11.1,11.1,0,0,0-3.6,1.8l-2.8,1.4c-1,.6-2.2.8-3.2,1.4s-2.7,1.4-3.8,2.7-1.2.7-1.7,1.2-2.6,2.1-3.8,3.1l-3.1,2.5a8.5,8.5,0,0,0-2.6,2.4c-.2.4-.7.4-1,.8s-2.8,2.6-4.1,4.1l-3.9,4a22,22,0,0,1-2.7,2.6l-2.9,2.6a13.7,13.7,0,0,0-1.6,1.8l-2.6,2.7a6.1,6.1,0,0,1-.7,1,7.1,7.1,0,0,1-.7.9c-.5.7-1,.5-1.5.1s-3.4-2.3-5.2-3.2a15.3,15.3,0,0,1-2.5-1.6,1.8,1.8,0,0,0-.9-.4c-.3-.1-.6-.2-.7-.6a.2.2,0,0,0-.2-.2c-1.4-.7-2.7-1.7-4-2.5l-1.4-.9a2,2,0,0,1-.6-1.2c0-.1,0-.2.1-.2s.8-1.5,1.4-2.2.9-.7,1.1-1.3,1.1-1.1,1.6-1.7l4.2-4.3a24.2,24.2,0,0,1,3.3-3.1,13,13,0,0,1,2.2-1.9c1.2-.8,2-2.1,3.4-2.5l.4-.3c.4-.8,1.3-1.1,2-1.5s2.6-1.8,3.9-2.7,1.5-.6,1.6-1.5a.1.1,0,0,1,.1-.1,8.7,8.7,0,0,0,3.8-2c.3-.2.6,0,.8-.2s1.3-.5,1.7-.9,2.4-1.3,3.5-2.1a8.9,8.9,0,0,1,3.1-1.5l3.3-1.1c1.8-.4,3.5-1.3,5.2-1.8l5-1.3c.2-.1.9,0,.5-.7s.2-.8.6-.9l4.7-.5a24.2,24.2,0,0,1,3.8-.2h16.8c2.8-.2,5.6-.3,8.3-.7h1.4Z" transform="translate(180.5 4.8)"/><path class="f" d="M57.3,48.6a10.4,10.4,0,0,0,.3,4.4,18,18,0,0,0,.8,2.1,11.1,11.1,0,0,0,1.2,3A5.2,5.2,0,0,0,62.3,60L66,61a6.2,6.2,0,0,0,2.7-.2c1.5-.4,2.4-1.5,3.5-2.4a3.2,3.2,0,0,0,1.2-2.9c-.1-.4.2-.8.1-1.3s.3-.2.5-.2a26.1,26.1,0,0,0,2.7.6l3.6.4c1,.1,1.1.3,1.1,1.2s-.3,2.6-.2,3.9a5.3,5.3,0,0,1-.8,2.2c-.7,1.2-1.6,2.2-2.3,3.4l-.6.4A5.8,5.8,0,0,0,75,67a10.2,10.2,0,0,1-3,.8,20.2,20.2,0,0,0-2.3.7,5.4,5.4,0,0,1-2.2.5c-1.2,0-2.3.5-3.4.5a28.1,28.1,0,0,1-4.1.1,49.2,49.2,0,0,0-6.7-.4c-.5,0-1-.5-1.6-.5a21.6,21.6,0,0,1-4.1-1.3L46,67a8.2,8.2,0,0,1-2.6-1.4c-.3-.3-.2-.8-.2-1.2s-.3-.8-.6-.9a1.4,1.4,0,0,1-1.4-1.2c-.1-.7-.6-1-.8-1.6a26.3,26.3,0,0,1-.6-3.9,19.8,19.8,0,0,0-.3-3.5c-.3-1-.4-1.9-.6-2.9s.1-2.5-.1-3.8.3-2.1.1-3.3a2.3,2.3,0,0,1,.4-1.4c.5-.9.3-1.9.5-2.8s.5-2.4,1.4-3.4.2-.2.2-.3.1-.5.6-.4,1.3-.5,1.2-1.4a2.7,2.7,0,0,1,1.5-2.1l2-.8a23,23,0,0,1,3.5-1l1.8-.3a21.9,21.9,0,0,1,3.6.3,10.2,10.2,0,0,0,3.5.1c.5-.2.9.3,1.3.1a5.1,5.1,0,0,1,2.2.3l3.1.8a22.6,22.6,0,0,0,3.7,1.1c.6.1.8.6,1.3.8a5.2,5.2,0,0,1,1.8,1.2c.5.7,1.4.9,2.1,1.5a36.1,36.1,0,0,1,3,2.5,5.3,5.3,0,0,1,.5,1.5c.2,1.4.9,2.6,1,4s0,.5-.4.6a6.5,6.5,0,0,1-2,.2,9.5,9.5,0,0,0-3.3.5c-.7.1-1.3-.2-1.3-.8s-.4-1.3-.6-1.9-.3-.7-.5-1a5.7,5.7,0,0,0-2.1-2.5l-.6-.4c-.7-.7-1.6-.5-2.4-.6a8,8,0,0,0-5,1.5,5.1,5.1,0,0,0-1.6,2,9.3,9.3,0,0,0-1.4,3.6,22.7,22.7,0,0,1-.6,2.5C57.2,47.9,57.4,48.4,57.3,48.6Z" transform="translate(180.5 4.8)"/><path class="d" d="M24.5,84.7h.1c0,.1-.1.2-.1.3l-2.8.2c-1.1-.1-2.2.1-3.3.1l-3.4.3c-2.3.1-4.7.4-7,.4s-2.1.3-3.2.3H1.6a50.9,50.9,0,0,0-5.5.4l-7.1.7-4.6.6-3.3.3-3.7.3-4.7.3c-2.5.1-5.1,0-7.6-.1l-5.6-.3H-52.9c-.4,0-.7,0-.3-.7a6.5,6.5,0,0,1,2.9-3,1.4,1.4,0,0,0,.7-.6c.3-.8,1-1,1.6-1.4s1.4-1,2.2-1.5A21.5,21.5,0,0,0-43,78.8l1.8-1.3c.5-.4,1.3-.1,2-.2s2.3.2,3.4,0a2.9,2.9,0,0,1,1.6.1c1.1.1,2.1-.1,3.1-.1l3.8-.2c2.6-.3,5.1-.1,7.7-.4h3.2c2.5-.2,5.1,0,7.7-.5l1.9-.2c.4,0,.8,0,1-.3a.8.8,0,0,1,.8-.2c1,.5,2,.1,3,0l1.3-.2,4.5-.5,6.7-.3a20.1,20.1,0,0,0,4.2-.5H15a15.5,15.5,0,0,0,4.3.2h2.3a19.4,19.4,0,0,0,3.4-.2,7.6,7.6,0,0,0,1.5.1,21.7,21.7,0,0,1,3.6.1c.1,0,.4-.2.5.1s-.2.3-.3.5a28.1,28.1,0,0,0-3.5,3.4A9.9,9.9,0,0,0,24.6,82a3.4,3.4,0,0,1-.6,1.2c-.4.6-.4.9.2,1.1S24.3,84.7,24.5,84.7Z" transform="translate(180.5 4.8)"/><path class="d" d="M21,9.9a2.7,2.7,0,0,1-1.7.8,2.5,2.5,0,0,0-1.2.8,13.7,13.7,0,0,1-3.2,1.6,23.2,23.2,0,0,0-5.3,3.5,26.7,26.7,0,0,0-3.7,3.8c-.3.4-.9.6-1.3,1a2.1,2.1,0,0,1-1.8.9c-1,0-2,.2-3.1.1a25.4,25.4,0,0,0-3.9.1H-8.5c-1.2,0-2.3.1-3.5,0h-5.1a37.5,37.5,0,0,0-5.8.1c-.9.1-1.9-.1-2.9,0s-5.1-.1-7.7.2h-1.2a21.7,21.7,0,0,0-3.6.2l-2.8.3-2.9.2c-1,0-2-.1-3,0s-4.5-.1-6.8.2a4.4,4.4,0,0,1-1.6-.2c-.5,0-.3-.3-.1-.5a20.1,20.1,0,0,1,2.8-2.3l4.4-2.8a42.3,42.3,0,0,1,4.2-2.2l2.9-1.7,1.2-.3a23,23,0,0,0,5.2-2.6,19.9,19.9,0,0,1,2.6-.9l2.2-.8c1.5-.5,3-1.3,4.7-1.3h.4a4.1,4.1,0,0,1,2.2-.2c1.1.2,2.2-.4,3.4-.4l3.5.2,2.8.2,4.1.2c3.6,0,7.1.7,10.6,1s4.8.3,7.3.5h4.3a30.8,30.8,0,0,0,5.3-.3c.9-.2,1.6.3,2.4.2Z" transform="translate(180.5 4.8)"/><path class="d" d="M77.6,14.6A15.5,15.5,0,0,1,74.7,16a11,11,0,0,0-2.1,1.4c-.8.6-1.4,1.4-2.1,2s-.7,1.1-1.2,1.6-1.2,1.5-2,2.2-.9,1.4-1.6,2-.1.1,0,.1-.6.7-1,.7a48.7,48.7,0,0,1-5.4-.1H56.1a7,7,0,0,0-2.9-.1c-.3.1-.7-.1-1-.1l-5.3-.4-6.4-.3-2.9-.2c-1.4-.1-2.9-.3-4.4-.3a32.9,32.9,0,0,1-4.4-.5,16.1,16.1,0,0,0-3.1-.1,15.2,15.2,0,0,1-2.1-.3,8.2,8.2,0,0,0-2.7-.2l-2.6-.2c-1.9-.1-3.7-.1-5.5-.3L8,22.4c-.1,0-.4,0-.4-.2s0-.3.2-.5,2.3-2.6,3.6-3.7a25.8,25.8,0,0,1,4.9-3.2c1.5-.7,2.9-1.6,4.3-2.3l2.9-1.3,3.8-1.1a4.6,4.6,0,0,1,2-.2,10.5,10.5,0,0,0,3.5.2l3.3.2,2.4.2c.2,0,.4.1.6-.1s.3-.2.4-.1a11.1,11.1,0,0,0,3.6.4l2.7.3a32.8,32.8,0,0,0,6.3.5l2.8.3h1c1.1-.3,2,.4,3.1.5l3.7.3c1.1.1,2.1.4,3.2.4l3.2.2h1.3a38.8,38.8,0,0,0,4.8.4l2.1.4C77.4,14.3,77.6,14.4,77.6,14.6Z" transform="translate(180.5 4.8)"/><path class="d" d="M-56.9,87.9a40.8,40.8,0,0,1-6.3-.6l-4.8-.2h-5.2c-3.2-.3-6.4-.3-9.6-.3h-7.7a19.7,19.7,0,0,1-4.2-.1,34.3,34.3,0,0,1-3.4-.6c-2.4-.5-5-.7-7.3-1.6a25.7,25.7,0,0,1-5.2-2.1l-4.5-2.8-.3-.2c-.1-.3-1-.6.2-.8s.9-1.2,1.2-1.8.6-1,.9-1.5v-.2c.4-1.3,1.7-1.9,2.7-2.8a18.6,18.6,0,0,1,5.2-3.6,2,2,0,0,0,.6-.7c.3-.3.6-.4.9-.1s1.2.9,1.9,1.2a16.4,16.4,0,0,1,2.2,1.4l2.3,1.2c1.4.5,2.7,1.3,4.2,1.7a44.8,44.8,0,0,0,7.4,2c1.6.2,3.3.2,4.9.3s2.9.2,4.4.3c3,.3,5.9.7,8.9.8,1,0,2,.4,3,.3a22.5,22.5,0,0,1,2.6,0c.7,0,1.5-.3,2.3.2s1.4-.1,2.1,0a21.9,21.9,0,0,0,3.6.3c1.3,0,2.6-.1,3.8,0s2.8-.1,4.2.1h0c.3.1.6-.3.7.1s-.3.5-.5.7a36.2,36.2,0,0,0-3.2,2.2,15.6,15.6,0,0,0-2.8,2.3c-.4.5-1.2.7-1.6,1.3a13.7,13.7,0,0,0-1.7,1.7,4.5,4.5,0,0,0-.6,1.2C-55.8,87.8-56.3,88.1-56.9,87.9Z" transform="translate(180.5 4.8)"/><path class="d" d="M167.8,45.5l-5-.5a21.9,21.9,0,0,0-3.6.3,30.3,30.3,0,0,0-3.2.6,23.7,23.7,0,0,0-3.6.9l-5,1.4a31.7,31.7,0,0,0-3.8,1.7c-1.8.9-3.4,2.2-5.2,3.1l-1.7,1a5.9,5.9,0,0,0-1.4.6c-.8.6-1.7,1-2.4,1.6a11.3,11.3,0,0,1-1.8,1.2l-2.7,1.9c-1.4,1-2.4,2.5-3.8,3.4s-2.5,2.3-3.9,3.3l-2.1,1.8a39.7,39.7,0,0,0-2.9,2.9c-1.1.9-1.8,2.2-2.8,3.2a19.2,19.2,0,0,0-1.7,1.3c-.4.4-.7.9-1.2,1.1a.6.6,0,0,1-.6.1,13.4,13.4,0,0,0,1.3-2.3,17.3,17.3,0,0,1,1.9-2.8c.3-.3.3-.8.6-1.1a23.1,23.1,0,0,0,2.1-4.5,6.2,6.2,0,0,1,1.7-2.6,9.1,9.1,0,0,0,2-2.4,9.2,9.2,0,0,1,1.9-2.8l4-4.7a38.8,38.8,0,0,1,2.6-3.1c.8-.6,1.1-1.6,2.1-2.1s.9-1.1,1.3-1.6a16.7,16.7,0,0,1,2.3-2.3c.6-.6.9-1.6,1.9-1.9s1.7-1.4,2.4-2.3a5.6,5.6,0,0,1,1.8-1.6c.5-.3.6-1,1.1-1.4l2.7-2.6c1.4-1.1,2.8-2.2,4.3-3.2a13,13,0,0,1,3.7-1.9c.3,0,.5-.1.8.2l2.5,2.6c.6.8,1.1,1.6,1.7,2.3l1.9,2c.8.8,1.7,1.5,2.5,2.4a23.7,23.7,0,0,0,3.4,2.9,42.7,42.7,0,0,1,3.8,3.6A.4.4,0,0,1,167.8,45.5Z" transform="translate(180.5 4.8)"/><path class="d" d="M120.7,15.5a3.7,3.7,0,0,1-2.2,1.5,4.1,4.1,0,0,0-2,1.4c-1.3,1.3-2.7,2.4-4,3.6a17.2,17.2,0,0,0-2.7,2.7l-2.7,3.9a7.7,7.7,0,0,0-1,2.9,7.8,7.8,0,0,1-1.1,2l-.4.6c-.3.6-.8.7-1.2.3a10.6,10.6,0,0,0-3.4-1.6l-4.8-1.9a21.7,21.7,0,0,0-3.6-1.2c-.6-.1-1.1-.6-1.8-.6a12,12,0,0,1-2-.3,2.4,2.4,0,0,1-1.4-.3,6.9,6.9,0,0,0-1.7-.5c-1.8-.5-3.6-.7-5.5-1.1a23.1,23.1,0,0,0-5.2-.6,21.6,21.6,0,0,0-3.6,0l-1.8-.2c-.3,0-.2-.2-.1-.4a6.5,6.5,0,0,1,1.3-1.6,18.3,18.3,0,0,1,1.3-1.6A23.7,23.7,0,0,1,74,19.1a10.5,10.5,0,0,1,2.9-1.7l2.5-1.1,1.7-.4c1.3-.3,2.5-.9,3.8-.8a20.1,20.1,0,0,1,4.2.5,16.7,16.7,0,0,0,3.2.2l3.1.4a6,6,0,0,0,2.3.1H98a2.8,2.8,0,0,0,1.8.3h5.1c1.2-.1,2.4,0,3.6-.2l3-.3c1.3-.2,2.6,0,3.9-.2a17.2,17.2,0,0,1,3.2-.2A13.6,13.6,0,0,1,120.7,15.5Z" transform="translate(180.5 4.8)"/><path class="e" d="M170,13.1a21.7,21.7,0,0,0,2.5-.4h2a25.8,25.8,0,0,0,4.8-.3,12.2,12.2,0,0,1,3.3-.1,57.3,57.3,0,0,1,5.8.7,45.4,45.4,0,0,1,5.1.9,45.8,45.8,0,0,0,5.6,1.4,13,13,0,0,1,4.5,2c1,.6,2.2,1,3.3,1.6a5,5,0,0,1,2.2,1.6c.3.5.8.7,1.2,1.1s1.6,2.5,2.6,3.6a7.4,7.4,0,0,1,.7,2.1,23.4,23.4,0,0,1,.3,3.8c0,1.2,0,2.3.1,3.5a6.3,6.3,0,0,1-.4,3c-.2.3-.3.3-.6.1a9.8,9.8,0,0,0-2.6-1.7c-.5-.2-.8-.8-1.3-1.3l-2.6-2a13.9,13.9,0,0,1-1.9-1.5,1.9,1.9,0,0,0-1-.5h-.3c-.6-.9-1.6-.9-2.4-1.4s-1.9-.6-2.8-1a7.5,7.5,0,0,0-2.6-.5,15.2,15.2,0,0,1-3.6-1.2,7.9,7.9,0,0,0-2.2-.6l-2.9-.8c-2-.3-3.8-1.3-5.8-1.6a5.4,5.4,0,0,1-2.1-.8l-1.5-.6a37.4,37.4,0,0,1-4.2-2.7c-1.2-.8-1.8-2.1-2.8-3.1a5.9,5.9,0,0,1-1.3-1.9C168.6,13.2,168.7,13.1,170,13.1Z" transform="translate(180.5 4.8)"/><path class="d" d="M-119.8,9.6c-1.2.5-2.6.8-3.9,1.2a34,34,0,0,0-3.4,1.2,17.8,17.8,0,0,0-3,1.7,35.4,35.4,0,0,1-3.3,1.9,11.7,11.7,0,0,1-2.7,1.5c-1.2.5-2.1,1.5-3.3,1.9a2.3,2.3,0,0,0-1,.7,14,14,0,0,1-3.2,2.2c-.4.2-.7.7-1.1.9s-3,1.8-4.3,2.9-2.8,1.8-3.7,3.3-.8.6-1.2.9a15.6,15.6,0,0,0-2,1.6,16.1,16.1,0,0,0-2.4,2.8,7.3,7.3,0,0,1-1.7,1.8l-.7.7-3.6,4a4.1,4.1,0,0,0-.7,1.1c-.3.4-.6.4-.9.1l-1.9-2c-.7-.8-1.5-1.6-2.1-2.4a9.9,9.9,0,0,1-1.7-3.2,15.8,15.8,0,0,1-.5-6.5c.2-1.2.9-2.2,1.2-3.5s.1-.4.4-.3,1.7-.3,2.3-.8l2.1-1.4a6.1,6.1,0,0,1,1.3-.3c1.2-.3,2.4-1,3.7-1.3a15.9,15.9,0,0,0,2.7-1.2,28.7,28.7,0,0,1,4-1.8c1.9-.6,3.8-1.1,5.6-1.8a72.1,72.1,0,0,1,9.1-2.5,54.1,54.1,0,0,1,5.8-1.2,29.9,29.9,0,0,0,6.6-1.4c1.3-.4,2.5-.3,3.8-.6l3.3-.6h.4Z" transform="translate(180.5 4.8)"/><path class="d" d="M25.7,84.8a2.2,2.2,0,0,0,1.2-1.9,9,9,0,0,1,1.8-3.5c.7-.8,1.6-1.4,2.4-2.2l1.8-1.7a2.7,2.7,0,0,1,2.2-1c.4,0,.7.1.9-.3s.4-.1.6,0a8.5,8.5,0,0,0,3.2.3h4.7c2.3,0,4.5.2,6.8.3l5.1.3h4.5c1.1,0,2.3.4,3.5.4a40.1,40.1,0,0,0,4.9-.1,11,11,0,0,1,2.6.2,5.5,5.5,0,0,1,1.8.2,1.7,1.7,0,0,1,1.1.6c.1.2.4.2.7.2,2.4-.4,4.8-1.2,7.3-1.8-.9,1.6-1.8,2.9-2.7,4.3s-2.2,2.8-2.7,4.4-.8.7-1.4.7H72.1a46.9,46.9,0,0,1-5.3,0H65.2c-1.5.1-2.9,0-4.4,0a38.4,38.4,0,0,0-4.8,0c-1.2.1-2.3-.1-3.4-.1H46.9c-3.1.1-6.3.3-9.4.1s-5.3.6-7.9.7l-2,.2h-.9C26.4,85,26,85.3,25.7,84.8Z" transform="translate(180.5 4.8)"/><path class="e" d="M207.9,47.6a1.8,1.8,0,0,1-.7,1.1c-1,.4-1.6,1.4-2.4,2a15.4,15.4,0,0,1-1.9.8c-1.4.7-2.9,1.1-4.3,1.7a9.1,9.1,0,0,1-3,1.1c-1.6,0-3.3.5-4.9-.1a.1.1,0,0,1-.1-.1c-1.2.3-2.3-.3-3.5-.5a34.2,34.2,0,0,1-3.4-1.3,31.7,31.7,0,0,1-4.5-2.3c-1.5-1-3-1.8-4.4-2.6a22.9,22.9,0,0,1-4.1-2.8c-1.1-1-2.4-1.9-3.5-3a13,13,0,0,0-2.2-1.9c-1.4-.9-2.3-2.3-3.6-3.3a11.4,11.4,0,0,1-1.9-1.9,3.8,3.8,0,0,1-1.1-1.1c-.5-.9-1.5-1.4-1.9-2.4s-.6-.4-.7-.9-.1-.5.4-.5a5.5,5.5,0,0,1,1.8.1c.5.1,1.1-.3,1.6-.4a6.2,6.2,0,0,1,3.3.3l1.7.7a13.8,13.8,0,0,1,3.8,2c1.6,1.1,3.1,2.4,4.8,3.5a11.4,11.4,0,0,1,2.9,2.9,8,8,0,0,0,2.3,1.8l2.6,1.9a8.3,8.3,0,0,0,1.6.9,44,44,0,0,0,5,2.1,26.9,26.9,0,0,0,4.6,1.4c2.4.4,4.9,1.3,7.4,1a32.3,32.3,0,0,0,4.4-.1c.4,0,.7.2,1.1.1a1.8,1.8,0,0,0,1.4-.4.6.6,0,0,1,.7-.1C207.4,47.4,207.7,47.3,207.9,47.6Z" transform="translate(180.5 4.8)"/><path class="e" d="M146.1,12.6a2,2,0,0,1,1.3-.1,24.6,24.6,0,0,0,5.4.4,40.1,40.1,0,0,1,4.9.1l2,.3,3.2-.2c.9-.2,1.9,0,2.9-.3s.5.1.6.5a6.1,6.1,0,0,0,1.2,3.4c.8,1.1,1.9,1.8,2.5,3s.6,1.1,1.4.9h.2c.3.8,1,1.1,1.6,1.6a6.9,6.9,0,0,0,2.5,1.4c.5.2.8.7,1.3.9l4,1.1c1.6.5,3.3.8,4.9,1.4s3.9.9,5.7,1.7,3.8,1,5.7,1.5a14.3,14.3,0,0,1,5.3,2.5,36,36,0,0,1,4,2.8c.8.6,1.4,1.6,2.3,2.1l2.3,1.7a2.4,2.4,0,0,1,.5,2.4l-.2.2c-1,.1-2,.6-3.1.1a24.6,24.6,0,0,0-4.8-1.6,2.8,2.8,0,0,1-1.5-.8,10.9,10.9,0,0,0-3.9-1.9l-3.8-1.3a53.1,53.1,0,0,0-5.5-2.3,29.1,29.1,0,0,1-5.1-2.2l-4.3-2.5a18.2,18.2,0,0,0-3.1-1.6l-4-2-2.9-1.4c-1.4-.7-2.7-1.5-4-2.3l-3.2-1.6c-1-.5-2.2-.9-3.2-1.5l-1.6-.7-3.8-2-3.5-1.9C148.9,13.8,147.5,13.4,146.1,12.6Z" transform="translate(180.5 4.8)"/><path class="e" d="M142.1,13.2c1.2.6,2.4.9,3.4,1.4l4.7,2.4,4.3,2.2a47.1,47.1,0,0,0,4.5,2.2,42.8,42.8,0,0,1,4.4,2,34.8,34.8,0,0,1,3.6,2.2,24.9,24.9,0,0,0,2.8,1.5l4.8,2.1a25.3,25.3,0,0,1,3.6,2,3.8,3.8,0,0,0,1.7.8.5.5,0,0,1,.5.3,6.1,6.1,0,0,0,2.3,1.5l1.9,1,2.9,1.1,2.6,1.1,2.5,1.1a29.9,29.9,0,0,0,3.8,1.5l1.9.5a5.1,5.1,0,0,1,1.8.9,11.1,11.1,0,0,0,4.8,2.2,4.6,4.6,0,0,1,1.6.7h.7a.4.4,0,0,1,.6.3c0,.2-.2.3-.4.4a11.6,11.6,0,0,1-2.8,1,62.6,62.6,0,0,1-7.5-.2l-3.9-.8a44,44,0,0,1-6.2-1.8,26.9,26.9,0,0,1-5.3-2.8c-1-.9-2.1-1.5-3.1-2.3l-.9-.8a8.1,8.1,0,0,0-1.8-1.9c-1.2-1.1-2.5-2.1-3.7-3a6.6,6.6,0,0,0-2.4-1.4c-.5-.2-.6-.7-.9-.9a8.4,8.4,0,0,0-2.9-1.3l-1.5-.7a11.5,11.5,0,0,0-2.8-.6c-1.5-.3-3,.2-4.5.2h-2.9a1.6,1.6,0,0,1-1.6-.8,46.9,46.9,0,0,0-4.2-4.7L146.7,20c-.2-.3-.9-.4-.9-.9s-.8-1.5-1.3-2.2S142.5,14.9,142.1,13.2Z" transform="translate(180.5 4.8)"/><path class="d" d="M-7.1,25.2c0-.3.6-.2.4-.6s1.1,0,1.7-.2h1V25c-.2,0-.5-.2-.7.1a.8.8,0,0,1-.8.1A2.9,2.9,0,0,0-7.1,25.2Zm.9-.4h0Z" transform="translate(180.5 4.8)"/><path class="d" d="M8.8,72.4V72H9.9c.7.1,1.4-.3,2.1,0v.2A16.7,16.7,0,0,1,8.8,72.4Z" transform="translate(180.5 4.8)"/><path class="d" d="M207.9,47.6c-.2-.3-.5-.2-.7-.3s1.1-.5,1.6-.9.3-.2.4-.1,0,.3-.1.4S208.4,47.5,207.9,47.6Z" transform="translate(180.5 4.8)"/><path class="e" d="M25.7,84.8c.3.5.7.2,1,.2h.9a16.1,16.1,0,0,1-3.1,0c0-.1.1-.2.1-.3S25.4,84.5,25.7,84.8Z" transform="translate(180.5 4.8)"/><path class="e" d="M-75.4,6.4V6a1.8,1.8,0,0,0,1.2-.2A1.3,1.3,0,0,1-75.4,6.4Z" transform="translate(180.5 4.8)"/><path class="e" d="M-119.8,9.6V9.2A1.2,1.2,0,0,0-119,9c.1,0,.2,0,.3.2a.2.2,0,0,1-.2.2Z" transform="translate(180.5 4.8)"/><path class="f" d="M-59.2,70.1c-.2-.3-.1-.6-.1-.9h.7C-59.2,69.4-59.2,69.8-59.2,70.1Z" transform="translate(180.5 4.8)"/><path class="e" d="M77.6,14.6c0-.2-.2-.3-.3-.5h1.1C78.3,14.6,77.9,14.5,77.6,14.6Z" transform="translate(180.5 4.8)"/><path class="e" d="M48.8,27.8v-.3a2.2,2.2,0,0,1,1.1.2C49.5,27.8,49.2,28,48.8,27.8Z" transform="translate(180.5 4.8)"/><path class="f" d="M-59.2,65.9c-.1-.1,0-.3.1-.4l.5.2C-58.9,65.7-58.9,66-59.2,65.9Z" transform="translate(180.5 4.8)"/><path class="d" d="M-10.2,24.5c-.4.4-.7.1-1-.1S-10.5,24.5-10.2,24.5Z" transform="translate(180.5 4.8)"/><path class="e" d="M21,9.9V9.6c.2.1.6-.3.7.1S21.3,9.9,21,9.9Z" transform="translate(180.5 4.8)"/><path class="f" d="M-59.1,66.7c-.1-.1-.1-.2,0-.4s.2.1.2.3S-59,66.7-59.1,66.7Z" transform="translate(180.5 4.8)"/><path class="f" d="M-59.3,68.4c0-.1-.1-.3.1-.4S-59.1,68.3-59.3,68.4Z" transform="translate(180.5 4.8)"/><path class="f" d="M-59.2,64.9h0Z" transform="translate(180.5 4.8)"/><path class="d" d="M-8.2,24.5c-.1.2-.2.2-.3.1S-8.3,24.4-8.2,24.5Z" transform="translate(180.5 4.8)"/><path class="e" d="M24.5,84.7c-.2,0-.2-.2-.3-.4S24.4,84.6,24.5,84.7Z" transform="translate(180.5 4.8)"/><path class="b" d="M12,72c-.7-.3-1.4.1-2.1,0H8.8l-5-.2c-1.4,0-2.9.1-4.3,0a18.2,18.2,0,0,0-3.3-.1H-9.2c-1-.1-1.9-.5-2.9-.6a17.4,17.4,0,0,1-4.6-1.3A9,9,0,0,1-19.3,68a20,20,0,0,0-1.9-2.2,1,1,0,0,1-.4-.5,4.2,4.2,0,0,0-1.1-1.8c-1-.8-.9-2.1-1.3-3.1s-.4-2.5-.9-3.7.5-2.4,1.9-2a12.2,12.2,0,0,0,3.3,0c1.3,0,2.6.2,3.8.3h1.6a.7.7,0,0,1,.9.4l1,2.8a8.8,8.8,0,0,0,4,5.1,27.6,27.6,0,0,0,4.7,2c1.7.6,3.4.1,5.1.1.1,0,.2,0,.2-.1a3.2,3.2,0,0,0-.4-3.8c-.4-.4-.5-.9-.9-1.3s-2.2-2.7-3.7-3.7A10.1,10.1,0,0,1-5,55.2,6.2,6.2,0,0,0-6.9,54c-1.2-.5-2.3-1.3-3.5-1.8l-3.3-1.5a9.6,9.6,0,0,1-2.5-2A14.8,14.8,0,0,1-19,45.4,8.9,8.9,0,0,1-20.3,42a15.1,15.1,0,0,1-.2-3.7c0-.5.3-.7.4-1s.2-1.6.6-2.2-.2-.4-.3-.4-.8-.7-.4-1.4A14.3,14.3,0,0,1-17,28.9a7.1,7.1,0,0,1,3.8-2.3,4.6,4.6,0,0,0,1.9-.8c.2,0,.3.2.5,0h.3a29.3,29.3,0,0,0,2.9-.5h.5a2.9,2.9,0,0,1,1.6,0,.8.8,0,0,0,.8-.1c.2-.3.5-.1.7-.1h.6c.6.2,1.4.1,1.9.6s1,.1,1.4.2l4.6.9h.3a2.4,2.4,0,0,0,1.3.5c1.8.6,3.8.5,5.4,1.5s2.1.9,3,1.4,2.4.7,3.3,1.5a1.4,1.4,0,0,0,1.6.2,1.3,1.3,0,0,1,1.2.3,5.8,5.8,0,0,0,1.6,2.1,9.5,9.5,0,0,1,1.9,2.7,4.4,4.4,0,0,1,.7,2.2c0,1,.2,2,.2,3.1a.9.9,0,0,1-.9.8l-3.3.2a20.6,20.6,0,0,0-2.6.3c-.4.1-.8-.1-1.2-.1a4.3,4.3,0,0,0-2.5.3c-.7.2-1.2-.2-1.9-.2a.1.1,0,0,1-.1-.1c.1-.6-.9-.6-.8-1.3s-.1-.3-.2-.4L7.4,39.1a36.2,36.2,0,0,0-4.3-2.4A4.9,4.9,0,0,0,1,36.3H.5a4.8,4.8,0,0,0-4.2.1H-4a2.8,2.8,0,0,0-2.2,2,7,7,0,0,0-.3,3.8,2,2,0,0,0,.6,1.4,28,28,0,0,0,4.5,3.9c1.1.8,2.5,1.3,3.5,2.2s3.5,1.4,5.2,2.1a8.5,8.5,0,0,1,2.2.9,10.6,10.6,0,0,0,1.9.6,11.7,11.7,0,0,1,2.4.9l3.4,1.7,3,1.7a.1.1,0,0,0,.1.1c.3,1,1.1,1.6,1.4,2.6s1,2.1,1.5,3.3.1.4.2.6.2.5.5.4.9-.2,1.1.3a1.8,1.8,0,0,1-.2,1.4c-.3.9-1.3,1.2-1.8,1.9a4.5,4.5,0,0,1-2.6,1.4c-.4.1-.7.5-1.1.7a12.1,12.1,0,0,1-3.7,1.1,18.6,18.6,0,0,1-3.4.4Zm.2-32.4h.3a2.4,2.4,0,0,1,1.3.9c.3.3.7,1,1.3.8s2.2.3,3.4.2,1-.5,1.6-.4a5.2,5.2,0,0,0,1.8-.3.3.3,0,0,0,.3-.3,5.6,5.6,0,0,0-2.1-4.9l-.4-.2a2,2,0,0,1-1.6-.9,15.4,15.4,0,0,0-1.9-1.7,2.5,2.5,0,0,0-1.2-.4c-.2.1-.3.1-.4-.1s-.7-.5-1.1-.6a4.9,4.9,0,0,1-1.7-.6c-1-.5-2.1-.7-2.8-1.5H8.7a11.1,11.1,0,0,1-2.5-.5,35.8,35.8,0,0,0-3.5-.9l-3.6-.7a13.1,13.1,0,0,0-2.7-.6l-3.9.2a5.9,5.9,0,0,0-1.3.2c-1.2.6-2.5.7-3.7,1.2a7.8,7.8,0,0,0-3.3,2.4c-.1.2-.1.6-.4.8a1.8,1.8,0,0,0-1,1.1c-.1.4-.2.7.4.7a.9.9,0,0,1,.8.5,1,1,0,0,1-.4,1c-.3.2-.7.4-.7.9a4.2,4.2,0,0,1-.4,1.6c-.8,1.9-.2,3.7.1,5.5s.8,1.2,1,1.8,2.4,2.7,3.7,3.8,3.2,1.4,4.8,2.3l3.2,1.7c1.4.7,2.3,1.9,3.6,2.7A4.1,4.1,0,0,1,1,57.5c.3.6,1.1.8,1.4,1.4a29,29,0,0,1,1.9,2.9,1.7,1.7,0,0,1,.1,1.4c-.1.3-.1.6-.2.8-.6,2-.5,3-2.9,3.3l-1.9.2a10.1,10.1,0,0,1-3.9-.2,20.6,20.6,0,0,1-5.4-2,8.6,8.6,0,0,1-4-4.2c-.5-1.3-1.1-2.6-1.7-3.9a.8.8,0,0,0-.8-.4h-1.3a12.1,12.1,0,0,0-3.8,0c-.4.1-.5.2-.5.7s.6,2.1.8,3.2-.2.8.1,1,1.1,1.4,1.7,2.1,1.6,2.5,3,3.3a20.6,20.6,0,0,0,2.6,1.2,36.1,36.1,0,0,0,8,1.3c2.3.2,4.5-.1,6.8.3a9.3,9.3,0,0,0,3.3-.2,4.5,4.5,0,0,1,2,0A24.3,24.3,0,0,0,11,70a10.2,10.2,0,0,0,3-.3c.2,0,.6-.4.8.1s.3,0,.3-.1.2-.3.4-.3l2.8-.8a7,7,0,0,0,2.4-1.3c.2-.2.5-.6.2-.7s-.5-.9-.4-1.5a4,4,0,0,0-.5-2.6,7.7,7.7,0,0,1-1.2-2.4,1.8,1.8,0,0,0-.5-.7,40,40,0,0,0-6-3.4c-1.6-.8-3.3-1.1-4.8-1.7a10,10,0,0,0-2.5-1,10.4,10.4,0,0,1-3.8-1.5l-3-1.8a18.2,18.2,0,0,0-2.3-1.5,6.7,6.7,0,0,1-1.6-1.2c-.8-1-1.8-1.7-2.6-2.6A2.9,2.9,0,0,1-9.1,43c.1-1.9-.3-3.8.9-5.7a6.1,6.1,0,0,1,3-2.5h.4c1.4-1.1,3-1,4.6-.7a31.5,31.5,0,0,1,4.4,1.1A9,9,0,0,1,7,36.4c.5.5,1.3.4,1.8.7a11.9,11.9,0,0,0,2.3,1.6c0,.5.2.9.9.8Z" transform="translate(180.5 4.8)"/><path class="d" d="M-3.4,25h0Z" transform="translate(180.5 4.8)"/><path class="d" d="M-7.6,25.3a29.3,29.3,0,0,1-2.9.5A5,5,0,0,1-7.6,25.3Z" transform="translate(180.5 4.8)"/><path class="d" d="M-10.8,25.8c-.2.2-.3,0-.5,0S-11,25.6-10.8,25.8Z" transform="translate(180.5 4.8)"/><path class="b" d="M138.6,12.1h0Z" transform="translate(180.5 4.8)"/><path class="c" d="M-6.2,24.8h0Z" transform="translate(180.5 4.8)"/><path class="f" d="M11.1,38.7a11.9,11.9,0,0,1-2.3-1.6c-.5-.3-1.3-.2-1.8-.7a9,9,0,0,0-2.8-1.3A31.5,31.5,0,0,0-.2,34c-1.6-.3-3.2-.4-4.6.7h-.4a6.1,6.1,0,0,0-3,2.5c-1.2,1.9-.8,3.8-.9,5.7a2.9,2.9,0,0,0,.8,1.7c.8.9,1.8,1.6,2.6,2.6a6.7,6.7,0,0,0,1.6,1.2A18.2,18.2,0,0,1-1.8,50l3,1.8A10.4,10.4,0,0,0,5,53.3a10,10,0,0,1,2.5,1c1.5.6,3.2.9,4.8,1.7a40,40,0,0,1,6,3.4,1.8,1.8,0,0,1,.5.7A7.7,7.7,0,0,0,20,62.5a4,4,0,0,1,.5,2.6c-.1.6-.5,1.2.4,1.5s0,.5-.2.7a7,7,0,0,1-2.4,1.3l-2.8.8c-.2,0-.3.1-.4.3s-.2.3-.3.1-.6-.1-.8-.1a10.2,10.2,0,0,1-3,.3,24.3,24.3,0,0,1-4.7-.2,4.5,4.5,0,0,0-2,0A9.3,9.3,0,0,1,1,70c-2.3-.4-4.5-.1-6.8-.3a36.1,36.1,0,0,1-8-1.3,20.6,20.6,0,0,1-2.6-1.2c-1.4-.8-2-2.1-3-3.3s-.8-1.7-1.7-2.1-.1-.7-.1-1-.5-2.1-.8-3.2.1-.6.5-.7a12.1,12.1,0,0,1,3.8,0h1.3a.8.8,0,0,1,.8.4c.6,1.3,1.2,2.6,1.7,3.9a8.6,8.6,0,0,0,4,4.2,20.6,20.6,0,0,0,5.4,2,10.1,10.1,0,0,0,3.9.2l1.9-.2C3.7,67,3.6,66,4.2,64c.1-.2.1-.5.2-.8a1.7,1.7,0,0,0-.1-1.4,29,29,0,0,0-1.9-2.9c-.3-.6-1.1-.8-1.4-1.4a4.1,4.1,0,0,0-2.1-2.2c-1.3-.8-2.2-2-3.6-2.7l-3.2-1.7c-1.6-.9-3.5-1.1-4.8-2.3s-2.9-2-3.7-3.8-.8-1-1-1.8-.9-3.6-.1-5.5a4.2,4.2,0,0,0,.4-1.6c0-.5.4-.7.7-.9a1,1,0,0,0,.4-1,.9.9,0,0,0-.8-.5c-.6,0-.5-.3-.4-.7a1.8,1.8,0,0,1,1-1.1c.3-.2.3-.6.4-.8a7.8,7.8,0,0,1,3.3-2.4c1.2-.5,2.5-.6,3.7-1.2a5.9,5.9,0,0,1,1.3-.2l3.9-.2a13.1,13.1,0,0,1,2.7.6l3.6.7a35.8,35.8,0,0,1,3.5.9,11.1,11.1,0,0,0,2.5.5H9c.7.8,1.8,1,2.8,1.5a4.9,4.9,0,0,0,1.7.6c.4.1.9.2,1.1.6s.2.2.4.1a2.5,2.5,0,0,1,1.2.4,15.4,15.4,0,0,1,1.9,1.7,2,2,0,0,0,1.6.9l.4.2a5.6,5.6,0,0,1,2.1,4.9.3.3,0,0,1-.3.3,5.2,5.2,0,0,1-1.8.3c-.6-.1-1,.3-1.6.4s-2.2-.5-3.4-.2-1-.5-1.3-.8a2.4,2.4,0,0,0-1.3-.9h-.3A1.3,1.3,0,0,0,11.1,38.7Z" transform="translate(180.5 4.8)"/><path class="e" d="M11.1,38.7a1.3,1.3,0,0,1,1.1.9H12C11.3,39.6,11.1,39.2,11.1,38.7Z" transform="translate(180.5 4.8)"/><path class="e" d="M12.2,39.6h0Z" transform="translate(180.5 4.8)"/></svg>